SplineFontDB: 3.0
FontName: GOST2930-62
FullName: GOST 2930-62
FamilyName: GOST 2930-62
Weight: Book
Copyright: 
Version: 1.00
ItalicAngle: 0
UnderlinePosition: -200
UnderlineWidth: 100
Ascent: 800
Descent: 200
InvalidEm: 0
sfntRevision: 0x00010000
LayerCount: 2
Layer: 0 0 "+BBcEMAQ0BD0EOAQ5 +BD8EOwQwBD0A" 1
Layer: 1 0 "+BB8ENQRABDUENAQ9BDgEOQAA +BD8EOwQwBD0A" 0
XUID: [1021 200 1631105240 8228]
StyleMap: 0x0000
FSType: 8
OS2Version: 1
OS2_WeightWidthSlopeOnly: 0
OS2_UseTypoMetrics: 0
CreationTime: 1115562651
ModificationTime: 1506158058
PfmFamily: 17
TTFWeight: 400
TTFWidth: 5
LineGap: 467
VLineGap: 0
Panose: 2 0 0 0 0 0 0 0 0 0
OS2TypoAscent: 800
OS2TypoAOffset: 0
OS2TypoDescent: -300
OS2TypoDOffset: 0
OS2TypoLinegap: 137
OS2WinAscent: 1200
OS2WinAOffset: 0
OS2WinDescent: 300
OS2WinDOffset: 0
HheadAscent: 1000
HheadAOffset: 0
HheadDescent: 0
HheadDOffset: 0
OS2SubXSize: 0
OS2SubYSize: 0
OS2SubXOff: 0
OS2SubYOff: 0
OS2SupXSize: 0
OS2SupYSize: 0
OS2SupXOff: 0
OS2SupYOff: 0
OS2StrikeYSize: 67
OS2StrikeYPos: 400
OS2Vendor: 'GOST'
OS2CodePages: 4000001f.d6030000
OS2UnicodeRanges: a00002af.500078fb.00000000.00000000
MarkAttachClasses: 1
DEI: 91125
ShortTable: maxp 16
  1
  0
  203
  72
  5
  0
  0
  2
  16
  47
  66
  0
  1036
  0
  0
  0
EndShort
LangName: 1033 "" "" "Regular"
Encoding: UnicodeBmp
UnicodeInterp: none
NameList: AGL For New Fonts
DisplaySize: -48
AntiAlias: 1
FitToEm: 0
WinInfo: 0 27 9
BeginPrivate: 0
EndPrivate
BeginChars: 65537 178

StartChar: .notdef
Encoding: 65536 -1 0
Width: 802
VWidth: 1365
Flags: HW
LayerCount: 2
Fore
SplineSet
0 0 m 1
 0 853 l 1
 682 853 l 1
 682 0 l 1
 0 0 l 1
21 21 m 1
 661 21 l 1
 661 832 l 1
 21 832 l 1
 21 21 l 1
EndSplineSet
EndChar

StartChar: quotedbl
Encoding: 34 34 1
Width: 324
VWidth: 1365
Flags: HW
LayerCount: 2
Fore
SplineSet
-21 720 m 1
 21 880 l 1
 75 880 l 1
 76 879 l 1
 77 879 l 1
 33 720 l 1
 -21 720 l 1
85 720 m 1
 129 880 l 1
 183 880 l 1
 183 879 l 1
 141 720 l 1
 85 720 l 1
EndSplineSet
EndChar

StartChar: percent
Encoding: 37 37 2
Width: 641
VWidth: 1365
Flags: HW
LayerCount: 2
Fore
SplineSet
0 0 m 1
 462 800 l 1
 522 800 l 1
 60 0 l 1
 0 0 l 1
0 680 m 256
 0 746 54 800 120 800 c 256
 186 800 240 746 240 680 c 256
 240 614 186 560 120 560 c 256
 54 560 0 614 0 680 c 256
52 680 m 0
 52 643 83 612 120 612 c 256
 157 612 188 643 188 680 c 0
 188 717 157 748 120 748 c 0
 83 748 52 717 52 680 c 0
240 120 m 256
 240 186 294 240 360 240 c 256
 426 240 480 186 480 120 c 256
 480 54 426 0 360 0 c 256
 294 0 240 54 240 120 c 256
292 121 m 0
 292 83 322 52 360 52 c 256
 398 52 428 83 428 121 c 0
 428 158 397 189 360 189 c 0
 323 189 292 158 292 121 c 0
EndSplineSet
EndChar

StartChar: quotesingle
Encoding: 39 39 3
Width: 217
VWidth: 1365
Flags: HW
LayerCount: 2
Fore
SplineSet
-21 720 m 1
 21 880 l 1
 75 880 l 1
 76 879 l 1
 77 879 l 1
 33 720 l 1
 -21 720 l 1
EndSplineSet
EndChar

StartChar: asterisk
Encoding: 42 42 4
Width: 495
VWidth: 1365
Flags: HW
LayerCount: 2
Fore
SplineSet
0 251 m 1
 149 400 l 1
 0 549 l 1
 39 588 l 1
 188 439 l 1
 337 588 l 1
 376 549 l 1
 227 400 l 1
 376 251 l 1
 337 212 l 1
 188 361 l 1
 39 212 l 1
 0 251 l 1
EndSplineSet
EndChar

StartChar: plus
Encoding: 43 43 5
Width: 599
VWidth: 1365
Flags: HW
LayerCount: 2
Fore
SplineSet
0 374 m 1
 0 426 l 1
 214 426 l 1
 214 640 l 1
 266 640 l 1
 266 426 l 1
 480 426 l 1
 480 374 l 1
 266 374 l 1
 266 160 l 1
 214 160 l 1
 214 374 l 1
 0 374 l 1
EndSplineSet
EndChar

StartChar: comma
Encoding: 44 44 6
Width: 119
VWidth: 1365
Flags: HW
LayerCount: 2
Fore
SplineSet
-104 -104 m 1
 -46 -104 0 -58 0 0 c 1
 -27 0 -52 25 -52 52 c 128
 -52 79 -27 104 0 104 c 256
 27 104 52 79 52 52 c 0
 52 -33 -19 -104 -104 -104 c 1
EndSplineSet
EndChar

StartChar: hyphen
Encoding: 45 45 7
AltUni2: 0000ad.ffffffff.0
Width: 599
VWidth: 1365
Flags: HW
LayerCount: 2
Fore
SplineSet
0 374 m 1
 0 426 l 1
 480 426 l 1
 480 374 l 1
 0 374 l 1
EndSplineSet
EndChar

StartChar: period
Encoding: 46 46 8
Width: 119
VWidth: 1365
Flags: HW
LayerCount: 2
Fore
SplineSet
-52 52 m 256
 -52 82 -30 104 0 104 c 256
 30 104 52 82 52 52 c 256
 52 23 29 0 0 0 c 256
 -29 0 -52 23 -52 52 c 256
EndSplineSet
EndChar

StartChar: slash
Encoding: 47 47 9
Width: 521
VWidth: 1365
Flags: HW
LayerCount: 2
Fore
SplineSet
-70 0 m 1
 392 800 l 1
 452 800 l 1
 -10 0 l 1
 -70 0 l 1
EndSplineSet
EndChar

StartChar: zero
Encoding: 48 48 10
Width: 599
VWidth: 1365
Flags: HW
LayerCount: 2
Fore
SplineSet
0 240 m 2
 0 560 l 2
 0 626 23 683 70 730 c 128
 117 777 174 800 240 800 c 256
 306 800 363 777 410 730 c 128
 457 683 480 626 480 560 c 2
 480 240 l 2
 480 174 457 117 410 70 c 128
 363 23 306 0 240 0 c 256
 174 0 117 23 70 70 c 128
 23 117 0 174 0 240 c 2
100 240 m 2
 100 163 163 100 240 100 c 256
 317 100 380 163 380 240 c 2
 380 560 l 2
 380 637 317 700 240 700 c 256
 163 700 100 637 100 560 c 2
 100 240 l 2
EndSplineSet
EndChar

StartChar: one
Encoding: 49 49 11
Width: 326
VWidth: 1365
Flags: HW
LayerCount: 2
Fore
SplineSet
0 563 m 1
 0 664 l 1
 25 670 49 685 72 708 c 128
 95 731 107 761 107 800 c 1
 207 800 l 1
 207 0 l 1
 107 0 l 1
 107 605 l 1
 75 582 39 568 0 563 c 1
EndSplineSet
EndChar

StartChar: two
Encoding: 50 50 12
Width: 599
VWidth: 1365
Flags: HW
LayerCount: 2
Fore
SplineSet
0 0 m 1
 0 111 39 205 117 283 c 0
 128 294 141 305 154 315 c 2
 326 449 l 2
 331 452 335 456 339 461 c 0
 366 488 380 521 380 560 c 128
 380 637 317 700 240 700 c 256
 161 700 100 636 100 556 c 1
 0 556 l 1
 0 625 23 683 70 730 c 128
 117 777 174 800 240 800 c 256
 306 800 363 777 410 730 c 128
 457 683 480 626 480 560 c 256
 480 494 457 437 410 390 c 1
 399 380 l 1
 337 333 276 285 215 237 c 0
 205 230 196 221 188 212 c 0
 156 180 132 143 117 100 c 1
 480 100 l 1
 480 0 l 1
 0 0 l 1
EndSplineSet
EndChar

StartChar: three
Encoding: 51 51 13
Width: 599
VWidth: 1365
Flags: HW
LayerCount: 2
Fore
SplineSet
0 240 m 1
 100 240 l 1
 100 163 163 100 240 100 c 256
 317 100 380 163 380 240 c 2
 380 340 l 2
 380 417 317 480 240 480 c 256
 199 480 166 464 138 436 c 1
 90 527 l 1
 281 700 l 1
 0 700 l 1
 52 800 l 1
 430 800 l 1
 430 700 l 1
 291 575 l 1
 337 565 380 540 420 500 c 128
 460 460 480 406 480 340 c 2
 480 240 l 2
 480 174 457 117 410 70 c 128
 363 23 306 0 240 0 c 256
 174 0 117 23 70 70 c 128
 23 117 0 174 0 240 c 1
EndSplineSet
EndChar

StartChar: four
Encoding: 52 52 14
Width: 599
VWidth: 1365
Flags: HW
LayerCount: 2
Fore
SplineSet
0 190 m 1
 0 290 l 1
 330 800 l 1
 430 800 l 1
 430 290 l 1
 480 290 l 1
 480 190 l 1
 430 190 l 1
 430 0 l 1
 330 0 l 1
 330 190 l 1
 0 190 l 1
119 290 m 1
 330 290 l 1
 330 616 l 1
 119 290 l 1
EndSplineSet
EndChar

StartChar: five
Encoding: 53 53 15
Width: 599
VWidth: 1365
Flags: HW
LayerCount: 2
Fore
SplineSet
0 240 m 1
 100 240 l 1
 100 163 163 100 240 100 c 256
 317 100 380 163 380 240 c 2
 380 360 l 2
 380 437 317 500 240 500 c 0
 214 500 190 493 168 480 c 1
 0 480 l 1
 0 800 l 1
 430 800 l 1
 430 700 l 1
 100 700 l 1
 100 555 l 1
 142 585 189 600 240 600 c 0
 306 600 363 577 410 530 c 128
 457 483 480 426 480 360 c 2
 480 240 l 2
 480 174 457 117 410 70 c 128
 363 23 306 0 240 0 c 256
 174 0 117 23 70 70 c 128
 23 117 0 174 0 240 c 1
EndSplineSet
EndChar

StartChar: six
Encoding: 54 54 16
Width: 599
VWidth: 1365
Flags: HW
LayerCount: 2
Fore
SplineSet
0 240 m 2
 0 560 l 2
 0 626 23 683 70 730 c 128
 117 777 174 800 240 800 c 256
 306 800 359 780 398 741 c 128
 437 702 462 660 473 616 c 1
 368 616 l 1
 361 632 348 650 328 670 c 128
 308 690 279 700 240 700 c 256
 163 700 100 637 100 560 c 2
 100 455 l 1
 142 485 189 500 240 500 c 0
 306 500 363 477 410 430 c 128
 457 383 480 326 480 260 c 2
 480 240 l 2
 480 174 457 117 410 70 c 128
 363 23 306 0 240 0 c 256
 174 0 117 23 70 70 c 128
 23 117 0 174 0 240 c 2
100 240 m 2
 100 163 163 100 240 100 c 256
 317 100 380 163 380 240 c 2
 380 260 l 2
 380 337 317 400 240 400 c 256
 163 400 100 337 100 260 c 2
 100 240 l 2
EndSplineSet
EndChar

StartChar: seven
Encoding: 55 55 17
Width: 599
VWidth: 1365
Flags: HW
LayerCount: 2
Fore
SplineSet
0 700 m 1
 0 800 l 1
 480 800 l 1
 480 647 l 1
 446 622 383 563 290 470 c 128
 197 377 150 221 150 0 c 1
 50 0 l 1
 50 249 99 423 198 522 c 128
 297 621 359 680 384 700 c 1
 0 700 l 1
EndSplineSet
EndChar

StartChar: eight
Encoding: 56 56 18
Width: 599
VWidth: 1365
Flags: HW
LayerCount: 2
Fore
SplineSet
0 240 m 0
 0 301 20 355 61 400 c 1
 20 446 0 499 0 560 c 0
 0 626 23 683 70 730 c 128
 117 777 175 800 242 800 c 0
 307 800 363 777 410 730 c 128
 457 683 480 626 480 560 c 0
 480 499 460 446 419 400 c 1
 460 355 480 301 480 240 c 0
 480 174 457 117 410 70 c 128
 363 23 305 0 238 0 c 0
 173 0 117 23 70 70 c 128
 23 117 0 174 0 240 c 0
100 240 m 128
 100 163 163 100 240 100 c 128
 317 100 380 163 380 240 c 128
 380 317 317 380 240 380 c 128
 163 380 100 317 100 240 c 128
100 560 m 128
 100 483 163 420 240 420 c 128
 317 420 380 483 380 560 c 128
 380 637 317 700 240 700 c 128
 163 700 100 637 100 560 c 128
EndSplineSet
EndChar

StartChar: nine
Encoding: 57 57 19
Width: 599
VWidth: 1365
Flags: HW
LayerCount: 2
Fore
SplineSet
0 540 m 2
 0 560 l 2
 0 626 23 683 70 730 c 128
 117 777 174 800 240 800 c 256
 306 800 363 777 410 730 c 128
 457 683 480 626 480 560 c 2
 480 240 l 2
 480 174 457 117 410 70 c 128
 363 23 306 0 240 0 c 256
 174 0 121 20 82 59 c 128
 43 98 18 140 7 184 c 1
 112 184 l 1
 119 168 132 150 152 130 c 128
 172 110 201 100 240 100 c 256
 317 100 380 163 380 240 c 2
 380 345 l 1
 338 315 291 300 240 300 c 0
 174 300 117 323 70 370 c 128
 23 417 0 474 0 540 c 2
100 540 m 2
 100 463 163 400 240 400 c 256
 317 400 380 463 380 540 c 2
 380 560 l 2
 380 637 317 700 240 700 c 256
 163 700 100 637 100 560 c 2
 100 540 l 2
EndSplineSet
EndChar

StartChar: colon
Encoding: 58 58 20
Width: 119
VWidth: 1365
Flags: HW
LayerCount: 2
Fore
SplineSet
-52 52 m 256
 -52 82 -30 104 0 104 c 256
 30 104 52 82 52 52 c 256
 52 23 29 0 0 0 c 256
 -29 0 -52 23 -52 52 c 256
-52 748 m 256
 -52 777 -29 800 0 800 c 256
 29 800 52 777 52 748 c 256
 52 719 29 696 0 696 c 256
 -29 696 -52 719 -52 748 c 256
EndSplineSet
EndChar

StartChar: semicolon
Encoding: 59 59 21
AltUni2: 00037e.ffffffff.0
Width: 119
VWidth: 1365
Flags: HW
LayerCount: 2
Fore
SplineSet
-104 -104 m 1
 -46 -104 0 -58 0 0 c 1
 -27 0 -52 25 -52 52 c 128
 -52 79 -27 104 0 104 c 256
 27 104 52 79 52 52 c 0
 52 -33 -19 -104 -104 -104 c 1
-52 748 m 256
 -52 777 -29 800 0 800 c 256
 29 800 52 777 52 748 c 256
 52 719 29 696 0 696 c 256
 -29 696 -52 719 -52 748 c 256
EndSplineSet
EndChar

StartChar: less
Encoding: 60 60 22
Width: 599
VWidth: 1365
Flags: HW
LayerCount: 2
Fore
SplineSet
0 400 m 1
 480 640 l 1
 480 582 l 1
 116 400 l 1
 480 218 l 1
 480 160 l 1
 0 400 l 1
EndSplineSet
EndChar

StartChar: equal
Encoding: 61 61 23
Width: 599
VWidth: 1365
Flags: HW
LayerCount: 2
Fore
SplineSet
0 296 m 1
 0 348 l 1
 480 348 l 1
 480 296 l 1
 0 296 l 1
0 452 m 1
 0 504 l 1
 480 504 l 1
 480 452 l 1
 0 452 l 1
EndSplineSet
EndChar

StartChar: greater
Encoding: 62 62 24
Width: 599
VWidth: 1365
Flags: HW
LayerCount: 2
Fore
SplineSet
0 160 m 1
 0 218 l 1
 364 400 l 1
 0 582 l 1
 0 640 l 1
 480 400 l 1
 0 160 l 1
EndSplineSet
EndChar

StartChar: A
Encoding: 65 65 25
Width: 599
VWidth: 1365
Flags: HW
LayerCount: 2
Fore
SplineSet
0 0 m 1
 190 800 l 1
 290 800 l 1
 480 0 l 1
 377 0 l 1
 337 167 l 1
 143 167 l 1
 103 0 l 1
 0 0 l 1
166 267 m 1
 314 267 l 1
 240 578 l 1
 166 267 l 1
EndSplineSet
EndChar

StartChar: B
Encoding: 66 66 26
Width: 599
VWidth: 1365
Flags: HW
LayerCount: 2
Fore
SplineSet
0 0 m 1
 0 800 l 1
 280 800 l 2
 335 800 383 780 422 741 c 128
 461 702 480 655 480 600 c 256
 480 545 454 491 401 438 c 1
 454 385 480 326 480 260 c 2
 480 240 l 2
 480 174 457 117 410 70 c 128
 363 23 306 0 240 0 c 2
 0 0 l 1
100 100 m 1
 240 100 l 2
 317 100 380 163 380 240 c 2
 380 260 l 2
 380 337 317 400 240 400 c 2
 100 400 l 1
 100 100 l 1
100 500 m 1
 280 500 l 2
 333 500 380 547 380 600 c 128
 380 653 333 700 280 700 c 2
 100 700 l 1
 100 500 l 1
EndSplineSet
EndChar

StartChar: C
Encoding: 67 67 27
Width: 599
VWidth: 1365
Flags: HW
LayerCount: 2
Fore
SplineSet
0 240 m 2
 0 560 l 2
 0 626 23 683 70 730 c 128
 117 777 174 800 240 800 c 256
 306 800 363 777 410 730 c 128
 457 683 480 626 480 560 c 1
 380 560 l 1
 380 637 317 700 240 700 c 256
 163 700 100 637 100 560 c 2
 100 240 l 2
 100 163 163 100 240 100 c 256
 317 100 380 163 380 240 c 1
 480 240 l 1
 480 174 457 117 410 70 c 128
 363 23 306 0 240 0 c 256
 174 0 117 23 70 70 c 128
 23 117 0 174 0 240 c 2
EndSplineSet
EndChar

StartChar: D
Encoding: 68 68 28
Width: 599
VWidth: 1365
Flags: HW
LayerCount: 2
Fore
SplineSet
0 0 m 1
 0 800 l 1
 240 800 l 2
 306 800 363 777 410 730 c 128
 457 683 480 626 480 560 c 2
 480 240 l 2
 480 174 457 117 410 70 c 128
 363 23 306 0 240 0 c 2
 0 0 l 1
100 100 m 1
 240 100 l 2
 317 100 380 163 380 240 c 2
 380 560 l 2
 380 637 317 700 240 700 c 2
 100 700 l 1
 100 100 l 1
EndSplineSet
EndChar

StartChar: E
Encoding: 69 69 29
Width: 599
VWidth: 1365
Flags: HW
LayerCount: 2
Fore
SplineSet
0 0 m 1
 0 800 l 1
 430 800 l 1
 430 700 l 1
 100 700 l 1
 100 500 l 1
 380 500 l 1
 380 400 l 1
 100 400 l 1
 100 100 l 1
 480 100 l 1
 480 0 l 1
 0 0 l 1
EndSplineSet
EndChar

StartChar: F
Encoding: 70 70 30
Width: 599
VWidth: 1365
Flags: HW
LayerCount: 2
Fore
SplineSet
0 0 m 1
 0 800 l 1
 480 800 l 1
 480 700 l 1
 100 700 l 1
 100 500 l 1
 320 500 l 1
 320 400 l 1
 100 400 l 1
 100 0 l 1
 0 0 l 1
EndSplineSet
EndChar

StartChar: G
Encoding: 71 71 31
Width: 599
VWidth: 1365
Flags: HW
LayerCount: 2
Fore
SplineSet
0 240 m 2
 0 560 l 2
 0 626 23 683 70 730 c 128
 117 777 174 800 240 800 c 256
 306 800 363 777 410 730 c 128
 457 683 480 626 480 560 c 1
 380 560 l 1
 380 637 317 700 240 700 c 256
 163 700 100 637 100 560 c 2
 100 240 l 2
 100 163 163 100 240 100 c 256
 317 100 380 163 380 240 c 2
 380 300 l 1
 296 300 l 1
 296 400 l 1
 480 400 l 1
 480 240 l 2
 480 174 457 117 410 70 c 128
 363 23 306 0 240 0 c 256
 174 0 117 23 70 70 c 128
 23 117 0 174 0 240 c 2
EndSplineSet
EndChar

StartChar: H
Encoding: 72 72 32
Width: 599
VWidth: 1365
Flags: HW
LayerCount: 2
Fore
SplineSet
0 0 m 1
 0 800 l 1
 100 800 l 1
 100 500 l 1
 380 500 l 1
 380 800 l 1
 480 800 l 1
 480 0 l 1
 380 0 l 1
 380 400 l 1
 100 400 l 1
 100 0 l 1
 0 0 l 1
EndSplineSet
EndChar

StartChar: I
Encoding: 73 73 33
Width: 219
VWidth: 1365
Flags: HW
LayerCount: 2
Fore
SplineSet
0 0 m 1
 0 800 l 1
 100 800 l 1
 100 0 l 1
 0 0 l 1
EndSplineSet
EndChar

StartChar: J
Encoding: 74 74 34
Width: 359
VWidth: 1365
Flags: HW
LayerCount: 2
Fore
SplineSet
0 0 m 1
 0 100 l 1
 96 100 l 2
 121 100 140 119 140 144 c 2
 140 700 l 1
 0 700 l 1
 0 800 l 1
 240 800 l 1
 240 144 l 2
 240 65 175 0 96 0 c 2
 0 0 l 1
EndSplineSet
EndChar

StartChar: K
Encoding: 75 75 35
Width: 599
VWidth: 1365
Flags: HW
LayerCount: 2
Fore
SplineSet
0 0 m 1
 0 800 l 1
 100 800 l 1
 100 439 l 1
 357 800 l 1
 480 800 l 1
 290 533 l 1
 480 0 l 1
 374 0 l 1
 219 434 l 1
 100 267 l 1
 100 0 l 1
 0 0 l 1
EndSplineSet
EndChar

StartChar: L
Encoding: 76 76 36
Width: 599
VWidth: 1365
Flags: HW
LayerCount: 2
Fore
SplineSet
0 0 m 1
 0 800 l 1
 100 800 l 1
 100 100 l 1
 480 100 l 1
 480 0 l 1
 0 0 l 1
EndSplineSet
EndChar

StartChar: M
Encoding: 77 77 37
Width: 839
VWidth: 1365
Flags: HW
LayerCount: 2
Fore
SplineSet
0 0 m 1
 0 800 l 1
 100 800 l 1
 360 400 l 1
 620 800 l 1
 720 800 l 1
 720 0 l 1
 620 0 l 1
 620 617 l 1
 360 217 l 1
 100 617 l 1
 100 0 l 1
 0 0 l 1
EndSplineSet
EndChar

StartChar: N
Encoding: 78 78 38
Width: 599
VWidth: 1365
Flags: HW
LayerCount: 2
Fore
SplineSet
0 0 m 1
 0 800 l 1
 103 800 l 1
 380 216 l 1
 380 800 l 1
 480 800 l 1
 480 1 l 1
 370 0 l 1
 100 584 l 1
 100 0 l 1
 0 0 l 1
EndSplineSet
EndChar

StartChar: O
Encoding: 79 79 39
Width: 599
VWidth: 1365
Flags: HW
LayerCount: 2
Fore
SplineSet
0 240 m 2
 0 560 l 2
 0 626 23 683 70 730 c 128
 117 777 174 800 240 800 c 256
 306 800 363 777 410 730 c 128
 457 683 480 626 480 560 c 2
 480 240 l 2
 480 174 457 117 410 70 c 128
 363 23 306 0 240 0 c 256
 174 0 117 23 70 70 c 128
 23 117 0 174 0 240 c 2
100 240 m 2
 100 163 163 100 240 100 c 256
 317 100 380 163 380 240 c 2
 380 560 l 2
 380 637 317 700 240 700 c 256
 163 700 100 637 100 560 c 2
 100 240 l 2
EndSplineSet
EndChar

StartChar: P
Encoding: 80 80 40
Width: 599
VWidth: 1365
Flags: HW
LayerCount: 2
Fore
SplineSet
0 0 m 1
 0 800 l 1
 240 800 l 2
 306 800 363 777 410 730 c 128
 457 683 480 626 480 560 c 2
 480 540 l 2
 480 474 457 417 410 370 c 128
 363 323 306 300 240 300 c 2
 100 300 l 1
 100 0 l 1
 0 0 l 1
100 400 m 1
 240 400 l 2
 317 400 380 463 380 540 c 2
 380 560 l 2
 380 637 317 700 240 700 c 2
 100 700 l 1
 100 400 l 1
EndSplineSet
EndChar

StartChar: Q
Encoding: 81 81 41
Width: 669
VWidth: 1365
Flags: HW
LayerCount: 2
Fore
SplineSet
0 240 m 2
 0 560 l 2
 0 626 23 683 70 730 c 128
 117 777 174 800 240 800 c 256
 306 800 363 777 410 730 c 128
 457 683 480 626 480 560 c 2
 480 269 l 1
 550 229 l 1
 500 142 l 1
 467 161 l 1
 456 128 437 98 410 71 c 0
 363 24 306 0 240 0 c 256
 174 0 117 23 70 70 c 128
 23 117 0 174 0 240 c 2
100 240 m 2
 100 163 163 100 240 100 c 256
 309 100 366 151 377 213 c 1
 310 251 l 1
 360 338 l 1
 380 327 l 1
 380 560 l 2
 380 637 317 700 240 700 c 256
 163 700 100 637 100 560 c 2
 100 240 l 2
EndSplineSet
EndChar

StartChar: R
Encoding: 82 82 42
Width: 599
VWidth: 1365
Flags: HW
LayerCount: 2
Fore
SplineSet
0 0 m 1
 0 800 l 1
 240 800 l 2
 306 800 363 777 410 730 c 128
 457 683 480 626 480 560 c 2
 480 540 l 2
 480 474 457 418 410 371 c 0
 388 349 364 332 337 320 c 1
 480 0 l 1
 371 0 l 1
 237 300 l 1
 100 300 l 1
 100 0 l 1
 0 0 l 1
100 400 m 1
 240 400 l 2
 317 400 380 463 380 540 c 2
 380 560 l 2
 380 637 317 700 240 700 c 2
 100 700 l 1
 100 400 l 1
EndSplineSet
EndChar

StartChar: S
Encoding: 83 83 43
Width: 599
VWidth: 1365
Flags: HW
LayerCount: 2
Fore
SplineSet
0 240 m 1
 100 240 l 1
 100 168 157 104 230 104 c 2
 252 104 l 2
 324 104 380 169 380 240 c 0
 380 291 341 332 298 338 c 1
 163 363 l 2
 122 370 85 392 51 426 c 128
 17 460 0 505 0 560 c 0
 0 626 23 683 70 730 c 128
 117 777 174 800 240 800 c 256
 306 800 363 777 410 730 c 128
 457 683 480 627 480 560 c 1
 380 560 l 1
 380 637 317 700 240 700 c 256
 163 700 100 637 100 560 c 0
 100 509 139 468 182 462 c 1
 317 437 l 2
 358 430 395 408 429 374 c 128
 463 340 480 295 480 240 c 0
 480 174 457 117 410 70 c 128
 363 23 306 0 240 0 c 256
 174 0 117 23 70 70 c 128
 23 117 0 174 0 240 c 1
EndSplineSet
EndChar

StartChar: T
Encoding: 84 84 44
Width: 599
VWidth: 1365
Flags: HW
LayerCount: 2
Fore
SplineSet
0 700 m 1
 0 800 l 1
 480 800 l 1
 480 700 l 1
 290 700 l 1
 290 0 l 1
 190 0 l 1
 190 700 l 1
 0 700 l 1
EndSplineSet
EndChar

StartChar: U
Encoding: 85 85 45
Width: 599
VWidth: 1365
Flags: HW
LayerCount: 2
Fore
SplineSet
0 240 m 2
 0 800 l 1
 100 800 l 1
 100 240 l 2
 100 163 163 100 240 100 c 256
 317 100 380 163 380 240 c 2
 380 800 l 1
 480 800 l 1
 480 240 l 2
 480 174 457 117 410 70 c 128
 363 23 306 0 240 0 c 256
 174 0 117 23 70 70 c 128
 23 117 0 174 0 240 c 2
EndSplineSet
EndChar

StartChar: V
Encoding: 86 86 46
Width: 599
VWidth: 1365
Flags: HW
LayerCount: 2
Fore
SplineSet
0 800 m 1
 103 800 l 1
 240 222 l 1
 377 800 l 1
 480 800 l 1
 290 0 l 1
 190 0 l 1
 0 800 l 1
EndSplineSet
EndChar

StartChar: W
Encoding: 87 87 47
Width: 839
VWidth: 1365
Flags: HW
LayerCount: 2
Fore
SplineSet
0 800 m 1
 101 800 l 1
 200 142 l 1
 283 700 l 1
 437 700 l 1
 520 142 l 1
 619 800 l 1
 720 800 l 1
 600 0 l 1
 441 0 l 1
 360 516 l 1
 279 0 l 1
 120 0 l 1
 0 800 l 1
EndSplineSet
EndChar

StartChar: X
Encoding: 88 88 48
Width: 599
VWidth: 1365
Flags: HW
LayerCount: 2
Fore
SplineSet
0 0 m 1
 185 400 l 1
 2 800 l 1
 103 800 l 1
 240 519 l 1
 370 800 l 1
 480 800 l 1
 295 400 l 1
 480 0 l 1
 370 0 l 1
 240 281 l 1
 103 0 l 1
 0 0 l 1
EndSplineSet
EndChar

StartChar: Y
Encoding: 89 89 49
Width: 599
VWidth: 1365
Flags: HW
LayerCount: 2
Fore
SplineSet
0 800 m 1
 106 800 l 1
 240 423 l 1
 374 800 l 1
 480 800 l 1
 290 267 l 1
 290 0 l 1
 190 0 l 1
 190 267 l 1
 0 800 l 1
EndSplineSet
EndChar

StartChar: Z
Encoding: 90 90 50
Width: 599
VWidth: 1365
Flags: HW
LayerCount: 2
Fore
SplineSet
0 0 m 1
 0 139 l 1
 385 700 l 1
 0 700 l 1
 0 800 l 1
 480 800 l 1
 480 661 l 1
 100 100 l 1
 480 100 l 1
 480 0 l 1
 0 0 l 1
EndSplineSet
EndChar

StartChar: a
Encoding: 97 97 51
Width: 451
VWidth: 1365
Flags: HW
LayerCount: 2
Fore
SplineSet
0 165 m 0
 0 255 74 329 165 329 c 2
 249 329 l 1
 249 369 l 2
 249 415 209 453 164 453 c 128
 118 453 80 415 80 369 c 1
 0 369 l 1
 0 415 16 454 48 486 c 128
 80 518 119 533 165 533 c 0
 255 533 329 459 329 369 c 2
 329 135 l 2
 329 109 337 99 347 89 c 1
 347 0 l 1
 312 11 294 26 279 46 c 1
 247 15 208 0 163 0 c 256
 73 0 0 75 0 165 c 0
80 164 m 128
 80 117 117 80 164 80 c 128
 211 80 249 117 249 165 c 2
 249 249 l 1
 159 249 l 2
 116 249 80 208 80 164 c 128
EndSplineSet
EndChar

StartChar: b
Encoding: 98 98 52
Width: 432
VWidth: 1365
Flags: HW
LayerCount: 2
Fore
SplineSet
0 0 m 1
 0 800 l 1
 80 800 l 1
 80 511 l 1
 104 525 130 533 159 533 c 2
 164 533 l 2
 255 533 329 459 329 369 c 2
 329 165 l 2
 329 74 255 0 164 0 c 0
 133 0 105 8 80 23 c 1
 80 0 l 1
 0 0 l 1
80 165 m 2
 80 120 118 80 164 80 c 128
 211 80 249 117 249 165 c 2
 249 369 l 2
 249 415 209 453 164 453 c 128
 117 453 80 415 80 369 c 2
 80 165 l 2
EndSplineSet
EndChar

StartChar: c
Encoding: 99 99 53
Width: 432
VWidth: 1365
Flags: HW
LayerCount: 2
Fore
SplineSet
0 165 m 2
 0 369 l 2
 0 460 73 533 164 533 c 0
 255 533 329 459 329 369 c 1
 249 369 l 1
 249 415 209 453 164 453 c 128
 118 453 80 415 80 369 c 2
 80 165 l 2
 80 118 117 80 164 80 c 128
 211 80 249 117 249 165 c 1
 329 165 l 1
 329 74 255 0 164 0 c 0
 74 0 0 74 0 165 c 2
EndSplineSet
EndChar

StartChar: d
Encoding: 100 100 54
Width: 432
VWidth: 1365
Flags: HW
LayerCount: 2
Fore
SplineSet
0 165 m 2
 0 369 l 2
 0 415 16 454 48 486 c 128
 80 518 119 533 165 533 c 0
 196 533 224 526 249 511 c 1
 249 800 l 1
 329 800 l 1
 329 0 l 1
 249 0 l 1
 249 23 l 1
 224 8 196 0 165 0 c 0
 74 0 0 74 0 165 c 2
80 165 m 2
 80 118 117 80 164 80 c 128
 210 80 249 119 249 165 c 2
 249 369 l 2
 249 415 210 454 164 454 c 128
 118 454 80 415 80 369 c 2
 80 165 l 2
EndSplineSet
EndChar

StartChar: e
Encoding: 101 101 55
Width: 432
VWidth: 1365
Flags: HW
LayerCount: 2
Fore
SplineSet
0 165 m 2
 0 369 l 2
 0 460 73 533 164 533 c 0
 255 533 329 459 329 369 c 2
 329 227 l 1
 80 227 l 1
 80 165 l 2
 80 118 117 80 164 80 c 128
 211 80 249 117 249 165 c 1
 329 165 l 1
 329 74 255 0 164 0 c 0
 74 0 0 74 0 165 c 2
80 307 m 1
 249 307 l 1
 249 369 l 2
 249 415 209 453 164 453 c 128
 118 453 80 415 80 369 c 2
 80 307 l 1
EndSplineSet
EndChar

StartChar: f
Encoding: 102 102 56
Width: 309
VWidth: 1365
Flags: HW
HStem: 720 80<160.017 199>
VStem: 63 80<664 702.983>
LayerCount: 2
Fore
SplineSet
0 453 m 1
 0 533 l 1
 63 533 l 1
 63 664 l 2
 63 739 124 800 199 800 c 2
 205 800 l 1
 205 720 l 1
 199 720 l 2
 169 720 143 694 143 664 c 2
 143 533 l 1
 205 533 l 1
 205 453 l 1
 143 453 l 1
 143 0 l 1
 63 0 l 1
 63 453 l 1
 0 453 l 1
EndSplineSet
EndChar

StartChar: g
Encoding: 103 103 57
Width: 432
VWidth: 1365
Flags: HW
LayerCount: 2
Fore
SplineSet
0 165 m 2
 0 369 l 2
 0 415 16 454 48 486 c 128
 80 518 119 533 165 533 c 0
 196 533 224 526 249 511 c 1
 249 533 l 1
 329 533 l 1
 329 -131 l 2
 329 -205 267 -267 193 -267 c 2
 165 -267 l 1
 165 -187 l 1
 193 -187 l 2
 222 -187 249 -160 249 -131 c 2
 249 23 l 1
 224 8 196 0 165 0 c 0
 74 0 0 74 0 165 c 2
80 165 m 2
 80 118 117 80 164 80 c 128
 210 80 249 119 249 165 c 2
 249 369 l 2
 249 415 210 454 164 454 c 128
 118 454 80 415 80 369 c 2
 80 165 l 2
EndSplineSet
EndChar

StartChar: h
Encoding: 104 104 58
Width: 432
VWidth: 1365
Flags: HW
LayerCount: 2
Fore
SplineSet
0 0 m 1
 0 800 l 1
 80 800 l 1
 80 511 l 1
 104 525 129 533 158 533 c 2
 163 533 l 2
 209 533 248 518 280 486 c 128
 312 454 329 415 329 369 c 2
 329 0 l 1
 249 0 l 1
 249 369 l 1
 247 417 212 453 163 453 c 0
 121 453 84 420 80 381 c 1
 80 0 l 1
 0 0 l 1
EndSplineSet
EndChar

StartChar: i
Encoding: 105 105 59
Width: 183
VWidth: 1365
Flags: HW
HStem: 0 21G<0 80> 493 80<4.67419 75.6373>
VStem: 0 80<0 369 497.363 568.751>
LayerCount: 2
Fore
SplineSet
0 0 m 1
 0 369 l 1
 80 369 l 1
 80 0 l 1
 0 0 l 1
0 533 m 256
 0 556 17 573 40 573 c 256
 63 573 80 556 80 533 c 256
 80 511 62 493 40 493 c 256
 22 493 14 503 6 514 c 0
 2 520 0 526 0 533 c 256
EndSplineSet
EndChar

StartChar: j
Encoding: 106 106 60
Width: 246
VWidth: 1365
Flags: HW
LayerCount: 2
Fore
SplineSet
0 -187 m 1
 7 -187 l 2
 36 -187 63 -160 63 -131 c 2
 63 533 l 1
 143 533 l 1
 143 -131 l 2
 143 -206 82 -267 7 -267 c 2
 0 -267 l 1
 0 -187 l 1
59 698 m 256
 59 721 77 738 99 738 c 256
 122 738 139 721 139 698 c 256
 139 675 122 658 99 658 c 256
 77 658 59 676 59 698 c 256
EndSplineSet
EndChar

StartChar: k
Encoding: 107 107 61
Width: 432
VWidth: 1365
Flags: HW
HStem: 0 21G<0 80 239.336 329> 513 20G<219.638 329> 780 20G<0 80>
VStem: 0 80<0 160 304 800>
LayerCount: 2
Fore
SplineSet
0 0 m 1
 0 800 l 1
 80 800 l 1
 80 304 l 1
 233 533 l 1
 329 533 l 1
 222 373 l 1
 329 0 l 1
 245 0 l 1
 164 286 l 1
 80 160 l 1
 80 0 l 1
 0 0 l 1
EndSplineSet
EndChar

StartChar: l
Encoding: 108 108 62
Width: 246
VWidth: 1365
Flags: HW
HStem: 0 80<97.0172 136>
VStem: 0 80<97.0172 136>
LayerCount: 2
Fore
SplineSet
0 136 m 2
 0 800 l 1
 80 800 l 1
 80 136 l 2
 80 105 105 80 136 80 c 2
 143 80 l 1
 143 0 l 1
 136 0 l 2
 61 0 0 61 0 136 c 2
EndSplineSet
EndChar

StartChar: m
Encoding: 109 109 63
Width: 592
VWidth: 1365
Flags: HW
HStem: 0 21G<25 105 217 297 409 489> 453 80<119.396 202.162 311.064 394.204>
VStem: 0 66<495 513.887> 25 80<0 436.498> 217 80<0 435.983> 409 80<0 435.983>
LayerCount: 2
Fore
SplineSet
0 447 m 1
 0 533 l 1
 25 528 46 516 65 497 c 0
 66 496 66 496 66 495 c 1
 92 520 124 533 161 533 c 0
 199 533 231 520 257 494 c 1
 283 520 315 533 353 533 c 256
 429 533 489 473 489 397 c 2xec
 489 0 l 1
 409 0 l 1
 409 397 l 2
 409 426 382 453 353 453 c 0
 323 453 297 428 297 397 c 2
 297 0 l 1
 217 0 l 1
 217 397 l 2
 217 426 190 453 161 453 c 0
 131 453 105 428 105 397 c 2
 105 0 l 1
 25 0 l 1
 25 401 l 2xdc
 25 419 14 437 0 447 c 1
EndSplineSet
EndChar

StartChar: n
Encoding: 110 110 64
Width: 451
VWidth: 1365
Flags: HW
LayerCount: 2
Fore
SplineSet
0 436 m 1
 0 533 l 1
 26 524 48 504 65 483 c 1
 98 516 136 533 183 533 c 0
 273 533 347 459 347 369 c 2
 347 0 l 1
 267 0 l 1
 267 369 l 2
 267 414 228 453 183 453 c 128
 138 453 99 414 99 369 c 2
 99 0 l 1
 19 0 l 1
 19 383 l 2
 19 404 13 421 0 436 c 1
EndSplineSet
EndChar

StartChar: o
Encoding: 111 111 65
Width: 432
VWidth: 1365
Flags: HW
LayerCount: 2
Fore
SplineSet
0 165 m 2
 0 369 l 2
 0 460 73 533 164 533 c 0
 255 533 329 459 329 369 c 2
 329 165 l 2
 329 74 255 0 164 0 c 0
 74 0 0 74 0 165 c 2
80 165 m 2
 80 118 117 80 164 80 c 128
 211 80 249 117 249 165 c 2
 249 369 l 2
 249 415 209 453 164 453 c 128
 118 453 80 415 80 369 c 2
 80 165 l 2
EndSplineSet
EndChar

StartChar: p
Encoding: 112 112 66
Width: 432
VWidth: 1365
Flags: HW
LayerCount: 2
Fore
SplineSet
0 -267 m 1
 0 533 l 1
 80 533 l 1
 80 511 l 1
 104 525 130 533 159 533 c 2
 164 533 l 2
 255 533 329 459 329 369 c 2
 329 165 l 2
 329 74 255 0 164 0 c 0
 133 0 105 8 80 23 c 1
 80 -267 l 1
 0 -267 l 1
80 165 m 2
 80 120 118 80 164 80 c 128
 211 80 249 117 249 165 c 2
 249 369 l 2
 249 415 209 453 164 453 c 128
 117 453 80 415 80 369 c 2
 80 165 l 2
EndSplineSet
EndChar

StartChar: q
Encoding: 113 113 67
Width: 432
VWidth: 1365
Flags: HW
LayerCount: 2
Fore
SplineSet
0 165 m 2
 0 369 l 2
 0 415 16 454 48 486 c 128
 80 518 119 533 165 533 c 0
 196 533 224 526 249 511 c 1
 249 533 l 1
 329 533 l 1
 329 -131 l 2
 329 -205 267 -267 193 -267 c 2
 165 -267 l 1
 165 -187 l 1
 193 -187 l 2
 222 -187 249 -160 249 -131 c 2
 249 23 l 1
 224 8 196 0 165 0 c 0
 74 0 0 74 0 165 c 2
80 165 m 2
 80 118 117 80 164 80 c 128
 210 80 249 119 249 165 c 2
 249 369 l 2
 249 415 210 454 164 454 c 128
 118 454 80 415 80 369 c 2
 80 165 l 2
EndSplineSet
EndChar

StartChar: r
Encoding: 114 114 68
Width: 432
VWidth: 1365
Flags: HW
LayerCount: 2
Fore
SplineSet
0 0 m 1
 0 533 l 1
 80 533 l 1
 80 420 l 1
 140 492 230 533 329 533 c 1
 329 453 l 1
 260 453 201 429 153 381 c 0
 104 334 80 276 80 207 c 2
 80 0 l 1
 0 0 l 1
EndSplineSet
EndChar

StartChar: s
Encoding: 115 115 69
Width: 432
VWidth: 1365
Flags: HW
LayerCount: 2
Fore
SplineSet
0 165 m 1
 80 165 l 1
 80 142 84 122 92 105 c 128
 100 88 121 80 152 80 c 128
 208 80 249 111 249 164 c 128
 249 187 244 204 232 216 c 128
 220 228 210 236 201 240 c 2
 107 286 l 2
 94 293 78 304 60 322 c 128
 42 340 34 367 34 403 c 128
 34 439 46 470 72 495 c 128
 98 520 129 533 164 533 c 0
 235 533 295 474 295 403 c 1
 215 403 l 1
 215 430 191 453 164 453 c 128
 137 453 114 431 114 404 c 128
 114 378 128 367 142 358 c 1
 237 312 l 2
 254 304 274 288 296 266 c 128
 318 244 329 210 329 165 c 0
 329 74 255 0 164 0 c 0
 74 0 0 74 0 165 c 1
EndSplineSet
EndChar

StartChar: t
Encoding: 116 116 70
Width: 309
VWidth: 1365
Flags: HW
LayerCount: 2
Fore
SplineSet
0 453 m 1
 0 533 l 1
 63 533 l 1
 63 800 l 1
 143 800 l 1
 143 533 l 1
 205 533 l 1
 205 453 l 1
 143 453 l 1
 143 136 l 2
 143 106 169 80 199 80 c 2
 205 80 l 1
 205 0 l 1
 199 0 l 2
 124 0 63 60 63 136 c 2
 63 453 l 1
 0 453 l 1
EndSplineSet
EndChar

StartChar: u
Encoding: 117 117 71
Width: 451
VWidth: 1365
Flags: HW
LayerCount: 2
Fore
SplineSet
0 165 m 2
 0 533 l 1
 80 533 l 1
 80 165 l 2
 80 118 117 80 164 80 c 128
 211 80 249 117 249 165 c 2
 249 533 l 1
 329 533 l 1
 329 151 l 2
 329 130 335 112 347 97 c 1
 347 0 l 1
 323 9 300 29 283 50 c 1
 250 17 212 0 164 0 c 0
 74 0 0 74 0 165 c 2
EndSplineSet
EndChar

StartChar: v
Encoding: 118 118 72
Width: 432
VWidth: 1365
Flags: HW
LayerCount: 2
Fore
SplineSet
0 533 m 1
 81 533 l 1
 165 113 l 1
 247 533 l 1
 329 533 l 1
 224 0 l 1
 105 0 l 1
 0 533 l 1
EndSplineSet
EndChar

StartChar: w
Encoding: 119 119 73
Width: 592
VWidth: 1365
Flags: HW
LayerCount: 2
Fore
SplineSet
0 533 m 1
 72 533 l 1
 122 213 l 1
 217 453 l 1
 272 453 l 1
 367 213 l 1
 426 533 l 1
 489 533 l 1
 419 0 l 1
 365 0 l 1
 245 305 l 1
 124 0 l 1
 69 0 l 1
 0 533 l 1
EndSplineSet
EndChar

StartChar: x
Encoding: 120 120 74
Width: 432
VWidth: 1365
Flags: HW
LayerCount: 2
Fore
SplineSet
0 0 m 1
 116 267 l 1
 0 533 l 1
 88 533 l 1
 165 364 l 1
 241 533 l 1
 329 533 l 1
 208 267 l 1
 329 0 l 1
 241 0 l 1
 165 169 l 1
 88 0 l 1
 0 0 l 1
EndSplineSet
EndChar

StartChar: y
Encoding: 121 121 75
Width: 432
VWidth: 1365
Flags: HW
LayerCount: 2
Fore
SplineSet
0 533 m 1
 82 533 l 1
 165 167 l 1
 247 533 l 1
 329 533 l 1
 175 -152 l 1
 164 -216 110 -267 40 -267 c 1
 40 -187 l 1
 67 -187 88 -166 95 -143 c 1
 123 -1 l 1
 0 533 l 1
EndSplineSet
EndChar

StartChar: z
Encoding: 122 122 76
Width: 432
VWidth: 1365
Flags: HW
LayerCount: 2
Fore
SplineSet
0 -1 m 1
 0 105 l 1
 238 453 l 1
 0 453 l 1
 0 532 l 1
 329 532 l 1
 329 428 l 1
 80 80 l 1
 329 80 l 1
 329 -1 l 1
 0 -1 l 1
EndSplineSet
EndChar

StartChar: asciitilde
Encoding: 126 126 77
Width: 599
VWidth: 1365
Flags: HW
LayerCount: 2
Fore
SplineSet
0 428 m 1
 7 453 22 476 46 500 c 128
 70 524 102 536 143 536 c 256
 184 536 221 519 254 485 c 1
 324 405 l 1
 346 383 370 372 396 372 c 128
 422 372 443 379 456 392 c 128
 469 405 478 417 483 428 c 1
 539 428 l 1
 532 403 516 380 492 356 c 128
 468 332 437 320 396 320 c 256
 355 320 318 337 285 371 c 1
 215 451 l 1
 193 473 168 484 142 484 c 128
 116 484 96 477 83 464 c 128
 70 451 60 439 55 428 c 1
 0 428 l 1
EndSplineSet
EndChar

StartChar: degree
Encoding: 176 176 78
Width: 119
VWidth: 1365
Flags: HW
LayerCount: 2
Fore
SplineSet
-80 800 m 256
 -80 843 -43 880 0 880 c 256
 43 880 80 843 80 800 c 256
 80 757 43 720 0 720 c 0
 -44 720 -80 756 -80 800 c 256
-28 800 m 0
 -28 785 -15 772 0 772 c 256
 15 772 28 784 28 800 c 0
 28 816 16 828 0 828 c 0
 -15 828 -28 816 -28 800 c 0
EndSplineSet
EndChar

StartChar: bullet
Encoding: 8226 8226 79
Width: 359
VWidth: 1365
Flags: HW
LayerCount: 2
Fore
SplineSet
0 400 m 256
 0 466 54 520 120 520 c 256
 186 520 240 466 240 400 c 256
 240 334 186 280 120 280 c 256
 54 280 0 334 0 400 c 256
52 401 m 0
 52 363 82 332 120 332 c 256
 158 332 188 363 188 401 c 0
 188 438 157 469 120 469 c 0
 83 469 52 438 52 401 c 0
EndSplineSet
EndChar

StartChar: plusminus
Encoding: 177 177 80
Width: 599
VWidth: 1365
Flags: HW
LayerCount: 2
Fore
SplineSet
0 95 m 1
 0 147 l 1
 480 147 l 1
 480 95 l 1
 0 95 l 1
0 439 m 1
 0 491 l 1
 214 491 l 1
 214 705 l 1
 266 705 l 1
 266 491 l 1
 480 491 l 1
 480 439 l 1
 266 439 l 1
 266 225 l 1
 214 225 l 1
 214 439 l 1
 0 439 l 1
EndSplineSet
EndChar

StartChar: lessequal
Encoding: 8804 8804 81
Width: 599
VWidth: 1365
Flags: HW
LayerCount: 2
Fore
SplineSet
0 319 m 1
 0 377 l 1
 480 137 l 1
 480 79 l 1
 0 319 l 1
0 481 m 1
 480 721 l 1
 480 663 l 1
 116 481 l 1
 480 299 l 1
 480 241 l 1
 0 481 l 1
EndSplineSet
EndChar

StartChar: greaterequal
Encoding: 8805 8805 82
Width: 599
VWidth: 1365
Flags: HW
LayerCount: 2
Fore
SplineSet
0 79 m 1
 0 137 l 1
 480 377 l 1
 480 319 l 1
 0 79 l 1
0 241 m 1
 0 299 l 1
 364 481 l 1
 0 663 l 1
 0 721 l 1
 480 481 l 1
 0 241 l 1
EndSplineSet
EndChar

StartChar: yen
Encoding: 165 165 83
Width: 1079
VWidth: 1365
Flags: HW
LayerCount: 2
Fore
SplineSet
0 200 m 256
 0 279 47 345 102 374 c 128
 134 391 166 400 200 400 c 0
 233 400 266 392 298 375 c 0
 311 368 322 360 333 351 c 2
 480 235 l 1
 627 351 l 2
 638 360 649 368 662 375 c 0
 694 392 727 400 760 400 c 0
 838 400 902 354 933 300 c 128
 951 268 960 235 960 200 c 256
 960 120 915 57 860 26 c 128
 828 8 795 0 760 0 c 256
 704 0 654 28 619 57 c 1
 480 168 l 1
 341 57 l 1
 308 26 255 0 200 0 c 256
 120 0 57 45 26 100 c 128
 8 132 0 165 0 200 c 256
52 200 m 256
 52 141 86 95 126 72 c 128
 149 59 174 52 200 52 c 256
 237 52 277 68 299 90 c 1
 438 201 l 1
 304 306 l 1
 281 329 240 348 200 348 c 256
 117 348 52 283 52 200 c 256
522 201 m 1
 661 90 l 1
 683 68 723 52 760 52 c 256
 819 52 865 86 888 126 c 128
 901 149 908 174 908 200 c 256
 908 283 843 348 760 348 c 256
 721 348 679 329 656 306 c 1
 522 201 l 1
EndSplineSet
EndChar

StartChar: summation
Encoding: 8721 8721 84
Width: 599
VWidth: 1365
Flags: HW
LayerCount: 2
Fore
SplineSet
0 0 m 1
 0 100 l 1
 179 400 l 1
 0 700 l 1
 0 800 l 1
 480 800 l 1
 480 700 l 1
 117 700 l 1
 296 400 l 1
 117 100 l 1
 480 100 l 1
 480 0 l 1
 0 0 l 1
EndSplineSet
EndChar

StartChar: Omega
Encoding: 8486 8486 85
Width: 939
VWidth: 1365
Flags: HW
LayerCount: 2
Fore
SplineSet
0 0 m 1
 0 100 l 1
 226 100 l 1
 226 286 l 1
 215 295 l 1
 151 358 119 427 119 506 c 0
 119 588 147 657 205 715 c 128
 262 772 330 800 410 800 c 256
 490 800 558 772 615 715 c 128
 672 658 700 590 700 510 c 128
 700 430 684 374 652 342 c 128
 620 310 601 292 594 286 c 1
 594 100 l 1
 820 100 l 1
 820 0 l 1
 494 0 l 1
 494 339 l 1
 522 353 l 1
 574 405 600 457 600 510 c 128
 600 614 514 700 410 700 c 0
 359 700 314 681 276 644 c 128
 238 607 220 563 220 510 c 128
 220 457 246 405 298 353 c 1
 326 339 l 1
 326 0 l 1
 0 0 l 1
EndSplineSet
EndChar

StartChar: radical
Encoding: 8730 8730 86
Width: 999
VWidth: 1365
Flags: HW
LayerCount: 2
Fore
SplineSet
0 638 m 1
 0 802 l 1
 215 802 l 1
 215 168 l 1
 218 168 l 1
 544 960 l 1
 880 960 l 1
 880 899 l 1
 585 899 l 1
 215 0 l 1
 104 0 l 1
 104 638 l 1
 0 638 l 1
EndSplineSet
EndChar

StartChar: approxequal
Encoding: 8776 8776 87
Width: 599
VWidth: 1365
Flags: HW
LayerCount: 2
Fore
SplineSet
0 400 m 1
 6 417 18 434 36 452 c 128
 54 470 78 480 108 480 c 128
 138 480 164 472 185 456 c 2
 309 363 l 2
 326 350 346 344 370 344 c 128
 394 344 414 351 427 364 c 128
 440 377 449 389 454 400 c 1
 480 400 l 1
 474 383 462 366 444 348 c 128
 426 330 402 320 372 320 c 128
 342 320 316 328 295 344 c 2
 171 437 l 2
 154 450 134 456 110 456 c 128
 86 456 66 449 53 436 c 128
 40 423 31 411 26 400 c 1
 0 400 l 1
0 520 m 1
 6 537 18 554 36 572 c 128
 54 590 78 600 108 600 c 128
 138 600 164 592 185 576 c 2
 309 483 l 2
 326 470 346 464 370 464 c 128
 394 464 414 471 427 484 c 128
 440 497 449 509 454 520 c 1
 480 520 l 1
 474 503 462 486 444 468 c 128
 426 450 402 440 372 440 c 128
 342 440 316 448 295 464 c 2
 171 557 l 2
 154 570 134 576 110 576 c 128
 86 576 66 569 53 556 c 128
 40 543 31 531 26 520 c 1
 0 520 l 1
EndSplineSet
EndChar

StartChar: Delta
Encoding: 8710 8710 88
Width: 939
VWidth: 1365
Flags: HW
LayerCount: 2
Fore
SplineSet
0 0 m 1
 410 800 l 1
 820 0 l 1
 0 0 l 1
163 100 m 1
 657 100 l 1
 410 581 l 1
 163 100 l 1
EndSplineSet
EndChar

StartChar: Alpha
Encoding: 913 913 89
Width: 599
VWidth: 1365
Flags: HW
LayerCount: 2
Fore
SplineSet
0 0 m 1
 190 800 l 1
 290 800 l 1
 480 0 l 1
 377 0 l 1
 337 167 l 1
 143 167 l 1
 103 0 l 1
 0 0 l 1
166 267 m 1
 314 267 l 1
 240 578 l 1
 166 267 l 1
EndSplineSet
EndChar

StartChar: Beta
Encoding: 914 914 90
Width: 599
VWidth: 1365
Flags: HW
LayerCount: 2
Fore
SplineSet
0 0 m 1
 0 800 l 1
 280 800 l 2
 335 800 383 780 422 741 c 128
 461 702 480 655 480 600 c 256
 480 545 454 491 401 438 c 1
 454 385 480 326 480 260 c 2
 480 240 l 2
 480 174 457 117 410 70 c 128
 363 23 306 0 240 0 c 2
 0 0 l 1
100 100 m 1
 240 100 l 2
 317 100 380 163 380 240 c 2
 380 260 l 2
 380 337 317 400 240 400 c 2
 100 400 l 1
 100 100 l 1
100 500 m 1
 280 500 l 2
 333 500 380 547 380 600 c 128
 380 653 333 700 280 700 c 2
 100 700 l 1
 100 500 l 1
EndSplineSet
EndChar

StartChar: Gamma
Encoding: 915 915 91
Width: 599
VWidth: 1365
Flags: HW
LayerCount: 2
Fore
SplineSet
0 0 m 1
 0 800 l 1
 480 800 l 1
 480 700 l 1
 100 700 l 1
 100 0 l 1
 0 0 l 1
EndSplineSet
EndChar

StartChar: uni0394
Encoding: 916 916 92
Width: 939
VWidth: 1365
Flags: HW
LayerCount: 2
Fore
SplineSet
0 0 m 1
 410 800 l 1
 820 0 l 1
 0 0 l 1
163 100 m 1
 657 100 l 1
 410 581 l 1
 163 100 l 1
EndSplineSet
EndChar

StartChar: Epsilon
Encoding: 917 917 93
Width: 599
VWidth: 1365
Flags: HW
LayerCount: 2
Fore
SplineSet
0 0 m 1
 0 800 l 1
 430 800 l 1
 430 700 l 1
 100 700 l 1
 100 500 l 1
 380 500 l 1
 380 400 l 1
 100 400 l 1
 100 100 l 1
 480 100 l 1
 480 0 l 1
 0 0 l 1
EndSplineSet
EndChar

StartChar: Zeta
Encoding: 918 918 94
Width: 599
VWidth: 1365
Flags: HW
LayerCount: 2
Fore
SplineSet
0 0 m 1
 0 139 l 1
 385 700 l 1
 0 700 l 1
 0 800 l 1
 480 800 l 1
 480 661 l 1
 100 100 l 1
 480 100 l 1
 480 0 l 1
 0 0 l 1
EndSplineSet
EndChar

StartChar: Eta
Encoding: 919 919 95
Width: 599
VWidth: 1365
Flags: HW
LayerCount: 2
Fore
SplineSet
0 0 m 1
 0 800 l 1
 100 800 l 1
 100 500 l 1
 380 500 l 1
 380 800 l 1
 480 800 l 1
 480 0 l 1
 380 0 l 1
 380 400 l 1
 100 400 l 1
 100 0 l 1
 0 0 l 1
EndSplineSet
EndChar

StartChar: Theta
Encoding: 920 920 96
Width: 599
VWidth: 1365
Flags: HW
LayerCount: 2
Fore
SplineSet
0 240 m 2
 0 560 l 2
 0 626 23 683 70 730 c 128
 117 777 174 800 240 800 c 256
 306 800 363 777 410 730 c 128
 457 683 480 626 480 560 c 2
 480 240 l 2
 480 174 457 117 410 70 c 128
 363 23 306 0 240 0 c 256
 174 0 117 23 70 70 c 128
 23 117 0 174 0 240 c 2
100 240 m 2
 100 163 163 100 240 100 c 256
 317 100 380 163 380 240 c 2
 380 350 l 1
 100 350 l 1
 100 240 l 2
100 450 m 1
 380 450 l 1
 380 560 l 2
 380 637 317 700 240 700 c 256
 163 700 100 637 100 560 c 2
 100 450 l 1
EndSplineSet
EndChar

StartChar: Iota
Encoding: 921 921 97
Width: 219
VWidth: 1365
Flags: HW
LayerCount: 2
Fore
SplineSet
0 0 m 1
 0 800 l 1
 100 800 l 1
 100 0 l 1
 0 0 l 1
EndSplineSet
EndChar

StartChar: Kappa
Encoding: 922 922 98
Width: 599
VWidth: 1365
Flags: HW
LayerCount: 2
Fore
SplineSet
0 0 m 1
 0 800 l 1
 100 800 l 1
 100 439 l 1
 357 800 l 1
 480 800 l 1
 290 533 l 1
 480 0 l 1
 374 0 l 1
 219 434 l 1
 100 267 l 1
 100 0 l 1
 0 0 l 1
EndSplineSet
EndChar

StartChar: Lambda
Encoding: 923 923 99
Width: 939
VWidth: 1365
Flags: HW
LayerCount: 2
Fore
SplineSet
0 0 m 1
 410 800 l 1
 820 0 l 1
 707 0 l 1
 410 581 l 1
 111 0 l 1
 0 0 l 1
EndSplineSet
EndChar

StartChar: Mu
Encoding: 924 924 100
Width: 839
VWidth: 1365
Flags: HW
LayerCount: 2
Fore
SplineSet
0 0 m 1
 0 800 l 1
 100 800 l 1
 360 400 l 1
 620 800 l 1
 720 800 l 1
 720 0 l 1
 620 0 l 1
 620 617 l 1
 360 217 l 1
 100 617 l 1
 100 0 l 1
 0 0 l 1
EndSplineSet
EndChar

StartChar: Nu
Encoding: 925 925 101
Width: 599
VWidth: 1365
Flags: HW
LayerCount: 2
Fore
SplineSet
0 0 m 1
 0 800 l 1
 103 800 l 1
 380 216 l 1
 380 800 l 1
 480 800 l 1
 480 1 l 1
 370 0 l 1
 100 584 l 1
 100 0 l 1
 0 0 l 1
EndSplineSet
EndChar

StartChar: Xi
Encoding: 926 926 102
Width: 599
VWidth: 1365
Flags: HW
LayerCount: 2
Fore
SplineSet
0 0 m 1
 0 150 l 1
 100 150 l 1
 100 100 l 1
 380 100 l 1
 380 150 l 1
 480 150 l 1
 480 0 l 1
 0 0 l 1
0 650 m 1
 0 800 l 1
 480 800 l 1
 480 650 l 1
 380 650 l 1
 380 700 l 1
 100 700 l 1
 100 650 l 1
 0 650 l 1
100 350 m 1
 100 450 l 1
 380 450 l 1
 380 350 l 1
 100 350 l 1
EndSplineSet
EndChar

StartChar: Omicron
Encoding: 927 927 103
Width: 599
VWidth: 1365
Flags: HW
LayerCount: 2
Fore
SplineSet
0 240 m 2
 0 560 l 2
 0 626 23 683 70 730 c 128
 117 777 174 800 240 800 c 256
 306 800 363 777 410 730 c 128
 457 683 480 626 480 560 c 2
 480 240 l 2
 480 174 457 117 410 70 c 128
 363 23 306 0 240 0 c 256
 174 0 117 23 70 70 c 128
 23 117 0 174 0 240 c 2
100 240 m 2
 100 163 163 100 240 100 c 256
 317 100 380 163 380 240 c 2
 380 560 l 2
 380 637 317 700 240 700 c 256
 163 700 100 637 100 560 c 2
 100 240 l 2
EndSplineSet
EndChar

StartChar: Pi
Encoding: 928 928 104
Width: 599
VWidth: 1365
Flags: HW
LayerCount: 2
Fore
SplineSet
0 0 m 1
 0 800 l 1
 480 800 l 1
 480 0 l 1
 380 0 l 1
 380 700 l 1
 100 700 l 1
 100 0 l 1
 0 0 l 1
EndSplineSet
EndChar

StartChar: Rho
Encoding: 929 929 105
Width: 599
VWidth: 1365
Flags: HW
LayerCount: 2
Fore
SplineSet
0 0 m 1
 0 800 l 1
 240 800 l 2
 306 800 363 777 410 730 c 128
 457 683 480 626 480 560 c 2
 480 540 l 2
 480 474 457 417 410 370 c 128
 363 323 306 300 240 300 c 2
 100 300 l 1
 100 0 l 1
 0 0 l 1
100 400 m 1
 240 400 l 2
 317 400 380 463 380 540 c 2
 380 560 l 2
 380 637 317 700 240 700 c 2
 100 700 l 1
 100 400 l 1
EndSplineSet
EndChar

StartChar: Sigma
Encoding: 931 931 106
Width: 599
VWidth: 1365
Flags: HW
LayerCount: 2
Fore
SplineSet
0 0 m 1
 0 100 l 1
 179 400 l 1
 0 700 l 1
 0 800 l 1
 480 800 l 1
 480 700 l 1
 117 700 l 1
 296 400 l 1
 117 100 l 1
 480 100 l 1
 480 0 l 1
 0 0 l 1
EndSplineSet
EndChar

StartChar: Tau
Encoding: 932 932 107
Width: 599
VWidth: 1365
Flags: HW
LayerCount: 2
Fore
SplineSet
0 700 m 1
 0 800 l 1
 480 800 l 1
 480 700 l 1
 290 700 l 1
 290 0 l 1
 190 0 l 1
 190 700 l 1
 0 700 l 1
EndSplineSet
EndChar

StartChar: Upsilon
Encoding: 933 933 108
Width: 599
VWidth: 1365
Flags: HW
LayerCount: 2
Fore
SplineSet
0 800 m 1
 106 800 l 1
 240 423 l 1
 374 800 l 1
 480 800 l 1
 290 267 l 1
 290 0 l 1
 190 0 l 1
 190 267 l 1
 0 800 l 1
EndSplineSet
EndChar

StartChar: Phi
Encoding: 934 934 109
Width: 839
VWidth: 1365
Flags: HW
LayerCount: 2
Fore
SplineSet
0 440 m 2
 0 460 l 2
 0 526 23 583 70 630 c 128
 117 677 174 700 240 700 c 2
 310 700 l 1
 310 800 l 1
 410 800 l 1
 410 700 l 1
 480 700 l 2
 546 700 603 677 650 630 c 128
 697 583 720 526 720 460 c 2
 720 440 l 2
 720 374 697 317 650 270 c 128
 603 223 546 200 480 200 c 2
 410 200 l 1
 410 0 l 1
 310 0 l 1
 310 200 l 1
 240 200 l 2
 174 200 117 223 70 270 c 128
 23 317 0 374 0 440 c 2
100 440 m 2
 100 363 163 300 240 300 c 2
 310 300 l 1
 310 600 l 1
 240 600 l 2
 163 600 100 537 100 460 c 2
 100 440 l 2
410 300 m 1
 480 300 l 2
 557 300 620 363 620 440 c 2
 620 460 l 2
 620 537 557 600 480 600 c 2
 410 600 l 1
 410 300 l 1
EndSplineSet
EndChar

StartChar: Chi
Encoding: 935 935 110
Width: 599
VWidth: 1365
Flags: HW
LayerCount: 2
Fore
SplineSet
0 0 m 1
 185 400 l 1
 2 800 l 1
 103 800 l 1
 240 519 l 1
 370 800 l 1
 480 800 l 1
 295 400 l 1
 480 0 l 1
 370 0 l 1
 240 281 l 1
 103 0 l 1
 0 0 l 1
EndSplineSet
EndChar

StartChar: Psi
Encoding: 936 936 111
Width: 939
VWidth: 1365
Flags: HW
LayerCount: 2
Fore
SplineSet
0 700 m 1
 0 800 l 1
 101 800 184 717 184 616 c 2
 184 540 l 2
 184 463 247 400 324 400 c 2
 360 400 l 1
 360 800 l 1
 460 800 l 1
 460 400 l 1
 496 400 l 2
 573 400 636 463 636 540 c 2
 636 616 l 2
 636 717 719 800 820 800 c 1
 820 700 l 1
 773 700 736 663 736 616 c 2
 736 540 l 2
 736 474 709 417 655 370 c 128
 601 323 548 300 496 300 c 2
 460 300 l 1
 460 0 l 1
 360 0 l 1
 360 300 l 1
 324 300 l 2
 258 300 201 323 154 370 c 128
 107 417 84 474 84 540 c 2
 84 616 l 2
 84 663 47 700 0 700 c 1
EndSplineSet
EndChar

StartChar: uni03A9
Encoding: 937 937 112
Width: 939
VWidth: 1365
Flags: HW
LayerCount: 2
Fore
SplineSet
0 0 m 1
 0 100 l 1
 226 100 l 1
 226 286 l 1
 215 295 l 1
 151 358 119 427 119 506 c 0
 119 588 147 657 205 715 c 128
 262 772 330 800 410 800 c 256
 490 800 558 772 615 715 c 128
 672 658 700 590 700 510 c 128
 700 430 684 374 652 342 c 128
 620 310 601 292 594 286 c 1
 594 100 l 1
 820 100 l 1
 820 0 l 1
 494 0 l 1
 494 339 l 1
 522 353 l 1
 574 405 600 457 600 510 c 128
 600 614 514 700 410 700 c 0
 359 700 314 681 276 644 c 128
 238 607 220 563 220 510 c 128
 220 457 246 405 298 353 c 1
 326 339 l 1
 326 0 l 1
 0 0 l 1
EndSplineSet
EndChar

StartChar: "+AMAA"
Encoding: 1040 1040 113
Width: 599
VWidth: 1365
Flags: HW
LayerCount: 2
Fore
SplineSet
0 0 m 1
 190 800 l 1
 290 800 l 1
 480 0 l 1
 377 0 l 1
 337 167 l 1
 143 167 l 1
 103 0 l 1
 0 0 l 1
166 267 m 1
 314 267 l 1
 240 578 l 1
 166 267 l 1
EndSplineSet
EndChar

StartChar: "+AMEA"
Encoding: 1041 1041 114
Width: 599
VWidth: 1365
Flags: HW
LayerCount: 2
Fore
SplineSet
0 0 m 1
 0 800 l 1
 430 800 l 1
 430 700 l 1
 100 700 l 1
 100 500 l 1
 240 500 l 2
 306 500 363 477 410 430 c 128
 457 383 480 326 480 260 c 2
 480 240 l 2
 480 174 457 117 410 70 c 128
 363 23 306 0 240 0 c 2
 0 0 l 1
100 100 m 1
 240 100 l 2
 317 100 380 163 380 240 c 2
 380 260 l 2
 380 337 317 400 240 400 c 2
 100 400 l 1
 100 100 l 1
EndSplineSet
EndChar

StartChar: "+AMIA"
Encoding: 1042 1042 115
Width: 599
VWidth: 1365
Flags: HW
LayerCount: 2
Fore
SplineSet
0 0 m 1
 0 800 l 1
 280 800 l 2
 335 800 383 780 422 741 c 128
 461 702 480 655 480 600 c 256
 480 545 454 491 401 438 c 1
 454 385 480 326 480 260 c 2
 480 240 l 2
 480 174 457 117 410 70 c 128
 363 23 306 0 240 0 c 2
 0 0 l 1
100 100 m 1
 240 100 l 2
 317 100 380 163 380 240 c 2
 380 260 l 2
 380 337 317 400 240 400 c 2
 100 400 l 1
 100 100 l 1
100 500 m 1
 280 500 l 2
 333 500 380 547 380 600 c 128
 380 653 333 700 280 700 c 2
 100 700 l 1
 100 500 l 1
EndSplineSet
EndChar

StartChar: "+AMMA"
Encoding: 1043 1043 116
Width: 599
VWidth: 1365
Flags: HW
LayerCount: 2
Fore
SplineSet
0 0 m 1
 0 800 l 1
 480 800 l 1
 480 700 l 1
 100 700 l 1
 100 0 l 1
 0 0 l 1
EndSplineSet
EndChar

StartChar: "+AMQA"
Encoding: 1044 1044 117
Width: 839
VWidth: 1365
Flags: HW
LayerCount: 2
Fore
SplineSet
0 -100 m 1
 0 100 l 1
 100 100 l 1
 240 689 l 2
 257 763 304 800 380 800 c 2
 620 800 l 1
 620 100 l 1
 720 100 l 1
 720 -100 l 1
 620 -100 l 1
 620 0 l 1
 100 0 l 1
 98 -100 l 1
 0 -100 l 1
203 100 m 1
 520 100 l 1
 520 700 l 1
 380 700 l 2
 357 700 342 689 337 666 c 2
 203 100 l 1
EndSplineSet
EndChar

StartChar: "+AMUA"
Encoding: 1045 1045 118
Width: 599
VWidth: 1365
Flags: HW
LayerCount: 2
Fore
SplineSet
0 0 m 1
 0 800 l 1
 430 800 l 1
 430 700 l 1
 100 700 l 1
 100 500 l 1
 380 500 l 1
 380 400 l 1
 100 400 l 1
 100 100 l 1
 480 100 l 1
 480 0 l 1
 0 0 l 1
EndSplineSet
EndChar

StartChar: "+AMYA"
Encoding: 1046 1046 119
Width: 839
VWidth: 1365
Flags: HW
LayerCount: 2
Fore
SplineSet
0 0 m 1
 176 450 l 1
 0 800 l 1
 112 800 l 1
 263 500 l 1
 310 500 l 1
 310 800 l 1
 409 800 l 1
 409 500 l 1
 457 500 l 1
 608 800 l 1
 720 800 l 1
 544 450 l 1
 720 0 l 1
 613 0 l 1
 456 400 l 1
 409 400 l 1
 409 0 l 1
 310 0 l 1
 310 400 l 1
 264 400 l 1
 107 0 l 1
 0 0 l 1
EndSplineSet
EndChar

StartChar: "+AMcA"
Encoding: 1047 1047 120
Width: 599
VWidth: 1365
Flags: HW
LayerCount: 2
Fore
SplineSet
0 240 m 1
 100 240 l 1
 100 163 163 100 240 100 c 128
 317 100 380 163 380 240 c 0
 380 300 330 350 270 350 c 2
 190 350 l 1
 190 450 l 1
 270 450 l 2
 300 450 326 460 348 482 c 128
 370 504 380 532 380 567 c 0
 380 601 366 632 339 659 c 128
 312 686 279 700 240 700 c 128
 163 700 100 637 100 560 c 1
 0 560 l 1
 0 626 23 683 70 730 c 128
 117 777 174 800 240 800 c 256
 306 800 363 777 410 730 c 128
 457 683 480 626 480 560 c 0
 480 502 455 449 406 400 c 1
 455 351 480 298 480 240 c 0
 480 174 457 117 410 70 c 128
 363 23 306 0 240 0 c 256
 174 0 117 23 70 70 c 128
 23 117 0 174 0 240 c 1
EndSplineSet
EndChar

StartChar: "+AMgA"
Encoding: 1048 1048 121
Width: 599
VWidth: 1365
Flags: HW
LayerCount: 2
Fore
SplineSet
0 1 m 1
 0 800 l 1
 100 800 l 1
 100 216 l 1
 377 800 l 1
 480 800 l 1
 480 0 l 1
 380 0 l 1
 380 584 l 1
 110 0 l 1
 0 1 l 1
EndSplineSet
EndChar

StartChar: "+AMkA"
Encoding: 1049 1049 122
Width: 599
VWidth: 1365
Flags: HW
LayerCount: 2
Fore
SplineSet
0 1 m 1
 0 800 l 1
 100 800 l 1
 100 216 l 1
 377 800 l 1
 480 800 l 1
 480 0 l 1
 380 0 l 1
 380 584 l 1
 110 0 l 1
 0 1 l 1
150 900 m 1
 150 1000 l 1
 330 1000 l 1
 330 900 l 1
 150 900 l 1
EndSplineSet
EndChar

StartChar: "+AMoA"
Encoding: 1050 1050 123
Width: 599
VWidth: 1365
Flags: HW
LayerCount: 2
Fore
SplineSet
0 0 m 1
 0 800 l 1
 100 800 l 1
 100 439 l 1
 357 800 l 1
 480 800 l 1
 290 533 l 1
 480 0 l 1
 374 0 l 1
 219 434 l 1
 100 267 l 1
 100 0 l 1
 0 0 l 1
EndSplineSet
EndChar

StartChar: "+AMsA"
Encoding: 1051 1051 124
Width: 599
VWidth: 1365
Flags: HW
LayerCount: 2
Fore
SplineSet
0 0 m 1
 0 100 l 1
 24 100 38 112 43 135 c 2
 158 684 l 1
 172 761 218 800 296 800 c 2
 480 800 l 1
 480 0 l 1
 380 0 l 1
 380 700 l 1
 296 700 l 2
 272 700 258 688 253 665 c 2
 141 115 l 2
 125 38 78 0 0 0 c 1
EndSplineSet
EndChar

StartChar: "+AMwA"
Encoding: 1052 1052 125
Width: 839
VWidth: 1365
Flags: HW
LayerCount: 2
Fore
SplineSet
0 0 m 1
 0 800 l 1
 100 800 l 1
 360 400 l 1
 620 800 l 1
 720 800 l 1
 720 0 l 1
 620 0 l 1
 620 617 l 1
 360 217 l 1
 100 617 l 1
 100 0 l 1
 0 0 l 1
EndSplineSet
EndChar

StartChar: "+AM0A"
Encoding: 1053 1053 126
Width: 599
VWidth: 1365
Flags: HW
LayerCount: 2
Fore
SplineSet
0 0 m 1
 0 800 l 1
 100 800 l 1
 100 500 l 1
 380 500 l 1
 380 800 l 1
 480 800 l 1
 480 0 l 1
 380 0 l 1
 380 400 l 1
 100 400 l 1
 100 0 l 1
 0 0 l 1
EndSplineSet
EndChar

StartChar: "+AM4A"
Encoding: 1054 1054 127
Width: 599
VWidth: 1365
Flags: HW
LayerCount: 2
Fore
SplineSet
0 240 m 2
 0 560 l 2
 0 626 23 683 70 730 c 128
 117 777 174 800 240 800 c 256
 306 800 363 777 410 730 c 128
 457 683 480 626 480 560 c 2
 480 240 l 2
 480 174 457 117 410 70 c 128
 363 23 306 0 240 0 c 256
 174 0 117 23 70 70 c 128
 23 117 0 174 0 240 c 2
100 240 m 2
 100 163 163 100 240 100 c 256
 317 100 380 163 380 240 c 2
 380 560 l 2
 380 637 317 700 240 700 c 256
 163 700 100 637 100 560 c 2
 100 240 l 2
EndSplineSet
EndChar

StartChar: "+AM8A"
Encoding: 1055 1055 128
Width: 599
VWidth: 1365
Flags: HW
LayerCount: 2
Fore
SplineSet
0 0 m 1
 0 800 l 1
 480 800 l 1
 480 0 l 1
 380 0 l 1
 380 700 l 1
 100 700 l 1
 100 0 l 1
 0 0 l 1
EndSplineSet
EndChar

StartChar: "+ANAA"
Encoding: 1056 1056 129
Width: 599
VWidth: 1365
Flags: HW
LayerCount: 2
Fore
SplineSet
0 0 m 1
 0 800 l 1
 240 800 l 2
 306 800 363 777 410 730 c 128
 457 683 480 626 480 560 c 2
 480 540 l 2
 480 474 457 417 410 370 c 128
 363 323 306 300 240 300 c 2
 100 300 l 1
 100 0 l 1
 0 0 l 1
100 400 m 1
 240 400 l 2
 317 400 380 463 380 540 c 2
 380 560 l 2
 380 637 317 700 240 700 c 2
 100 700 l 1
 100 400 l 1
EndSplineSet
EndChar

StartChar: "+ANEA"
Encoding: 1057 1057 130
Width: 599
VWidth: 1365
Flags: HW
LayerCount: 2
Fore
SplineSet
0 240 m 2
 0 560 l 2
 0 626 23 683 70 730 c 128
 117 777 174 800 240 800 c 256
 306 800 363 777 410 730 c 128
 457 683 480 626 480 560 c 1
 380 560 l 1
 380 637 317 700 240 700 c 256
 163 700 100 637 100 560 c 2
 100 240 l 2
 100 163 163 100 240 100 c 256
 317 100 380 163 380 240 c 1
 480 240 l 1
 480 174 457 117 410 70 c 128
 363 23 306 0 240 0 c 256
 174 0 117 23 70 70 c 128
 23 117 0 174 0 240 c 2
EndSplineSet
EndChar

StartChar: "+ANIA"
Encoding: 1058 1058 131
Width: 599
VWidth: 1365
Flags: HW
LayerCount: 2
Fore
SplineSet
0 700 m 1
 0 800 l 1
 480 800 l 1
 480 700 l 1
 290 700 l 1
 290 0 l 1
 190 0 l 1
 190 700 l 1
 0 700 l 1
EndSplineSet
EndChar

StartChar: "+ANMA"
Encoding: 1059 1059 132
Width: 599
VWidth: 1365
Flags: HW
LayerCount: 2
Fore
SplineSet
0 800 m 1
 101 800 l 1
 164 404 l 1
 166 384 185 367 207 367 c 2
 276 367 l 1
 377 800 l 1
 480 800 l 1
 337 189 l 2
 326 143 300 100 260 60 c 128
 220 20 166 0 99 0 c 1
 100 99 l 1
 138 100 170 112 194 135 c 128
 218 158 233 184 239 211 c 2
 253 267 l 1
 207 267 l 2
 168 267 135 279 110 304 c 128
 85 329 70 357 65 388 c 2
 0 800 l 1
EndSplineSet
EndChar

StartChar: "+ANQA"
Encoding: 1060 1060 133
Width: 839
VWidth: 1365
Flags: HW
LayerCount: 2
Fore
SplineSet
0 440 m 2
 0 460 l 2
 0 526 23 583 70 630 c 128
 117 677 174 700 240 700 c 2
 310 700 l 1
 310 800 l 1
 410 800 l 1
 410 700 l 1
 480 700 l 2
 546 700 603 677 650 630 c 128
 697 583 720 526 720 460 c 2
 720 440 l 2
 720 374 697 317 650 270 c 128
 603 223 546 200 480 200 c 2
 410 200 l 1
 410 0 l 1
 310 0 l 1
 310 200 l 1
 240 200 l 2
 174 200 117 223 70 270 c 128
 23 317 0 374 0 440 c 2
100 440 m 2
 100 363 163 300 240 300 c 2
 310 300 l 1
 310 600 l 1
 240 600 l 2
 163 600 100 537 100 460 c 2
 100 440 l 2
410 300 m 1
 480 300 l 2
 557 300 620 363 620 440 c 2
 620 460 l 2
 620 537 557 600 480 600 c 2
 410 600 l 1
 410 300 l 1
EndSplineSet
EndChar

StartChar: "+ANUA"
Encoding: 1061 1061 134
Width: 599
VWidth: 1365
Flags: HW
LayerCount: 2
Fore
SplineSet
0 0 m 1
 185 400 l 1
 2 800 l 1
 103 800 l 1
 240 519 l 1
 370 800 l 1
 480 800 l 1
 295 400 l 1
 480 0 l 1
 370 0 l 1
 240 281 l 1
 103 0 l 1
 0 0 l 1
EndSplineSet
EndChar

StartChar: "+ANYA"
Encoding: 1062 1062 135
Width: 699
VWidth: 1365
Flags: HW
LayerCount: 2
Fore
SplineSet
0 0 m 1
 0 800 l 1
 100 800 l 1
 100 100 l 1
 380 100 l 1
 380 800 l 1
 480 800 l 1
 480 100 l 1
 580 100 l 1
 580 -100 l 1
 480 -100 l 1
 480 0 l 1
 0 0 l 1
EndSplineSet
EndChar

StartChar: "+ANcA"
Encoding: 1063 1063 136
Width: 599
VWidth: 1365
Flags: HW
LayerCount: 2
Fore
SplineSet
0 540 m 2
 0 800 l 1
 100 800 l 1
 100 540 l 2
 100 463 163 400 240 400 c 2
 380 400 l 1
 380 800 l 1
 480 800 l 1
 480 0 l 1
 380 0 l 1
 380 300 l 1
 240 300 l 2
 174 300 117 323 70 370 c 128
 23 417 0 474 0 540 c 2
EndSplineSet
EndChar

StartChar: "+ANgA"
Encoding: 1064 1064 137
Width: 839
VWidth: 1365
Flags: HW
LayerCount: 2
Fore
SplineSet
0 0 m 1
 0 800 l 1
 100 800 l 1
 100 100 l 1
 310 100 l 1
 310 800 l 1
 410 800 l 1
 410 100 l 1
 620 100 l 1
 620 800 l 1
 720 800 l 1
 720 0 l 1
 0 0 l 1
EndSplineSet
EndChar

StartChar: "+ANkA"
Encoding: 1065 1065 138
Width: 939
VWidth: 1365
Flags: HW
LayerCount: 2
Fore
SplineSet
0 0 m 1
 0 800 l 1
 100 800 l 1
 100 100 l 1
 310 100 l 1
 310 800 l 1
 410 800 l 1
 410 100 l 1
 620 100 l 1
 620 800 l 1
 720 800 l 1
 720 100 l 1
 820 100 l 1
 820 -100 l 1
 720 -100 l 1
 720 0 l 1
 0 0 l 1
EndSplineSet
EndChar

StartChar: "+ANoA"
Encoding: 1066 1066 139
Width: 839
VWidth: 1365
Flags: HW
LayerCount: 2
Fore
SplineSet
0 700 m 1
 0 800 l 1
 340 800 l 1
 340 500 l 1
 480 500 l 2
 546 500 603 477 650 430 c 128
 697 383 720 326 720 260 c 2
 720 240 l 2
 720 174 697 117 650 70 c 128
 603 23 546 0 480 0 c 2
 240 0 l 1
 240 700 l 1
 0 700 l 1
340 100 m 1
 480 100 l 2
 557 100 620 163 620 240 c 2
 620 260 l 2
 620 337 557 400 480 400 c 2
 340 400 l 1
 340 100 l 1
EndSplineSet
EndChar

StartChar: "+ANsA"
Encoding: 1067 1067 140
Width: 839
VWidth: 1365
Flags: HW
LayerCount: 2
Fore
SplineSet
0 0 m 1
 0 800 l 1
 100 800 l 1
 100 500 l 1
 240 500 l 2
 306 500 363 477 410 430 c 128
 457 383 480 326 480 260 c 2
 480 240 l 2
 480 174 457 117 410 70 c 128
 363 23 306 0 240 0 c 2
 0 0 l 1
100 100 m 1
 240 100 l 2
 317 100 380 163 380 240 c 2
 380 260 l 2
 380 337 317 400 240 400 c 2
 100 400 l 1
 100 100 l 1
620 0 m 1
 620 800 l 1
 720 800 l 1
 720 0 l 1
 620 0 l 1
EndSplineSet
EndChar

StartChar: "+ANwA"
Encoding: 1068 1068 141
Width: 599
VWidth: 1365
Flags: HW
LayerCount: 2
Fore
SplineSet
0 0 m 1
 0 800 l 1
 100 800 l 1
 100 500 l 1
 240 500 l 2
 306 500 363 477 410 430 c 128
 457 383 480 326 480 260 c 2
 480 240 l 2
 480 174 457 117 410 70 c 128
 363 23 306 0 240 0 c 2
 0 0 l 1
100 100 m 1
 240 100 l 2
 317 100 380 163 380 240 c 2
 380 260 l 2
 380 337 317 400 240 400 c 2
 100 400 l 1
 100 100 l 1
EndSplineSet
EndChar

StartChar: "+AN0A"
Encoding: 1069 1069 142
Width: 599
VWidth: 1365
Flags: HW
LayerCount: 2
Fore
SplineSet
0 240 m 1
 100 240 l 1
 100 163 163 100 240 100 c 256
 317 100 380 163 380 240 c 2
 380 400 l 1
 190 400 l 1
 190 500 l 1
 380 500 l 1
 380 560 l 2
 380 637 317 700 240 700 c 256
 163 700 100 637 100 560 c 1
 0 560 l 1
 0 626 23 683 70 730 c 128
 117 777 174 800 240 800 c 256
 306 800 363 777 410 730 c 128
 457 683 480 626 480 560 c 2
 480 240 l 2
 480 174 457 117 410 70 c 128
 363 23 306 0 240 0 c 256
 174 0 117 23 70 70 c 128
 23 117 0 174 0 240 c 1
EndSplineSet
EndChar

StartChar: "+AN4A"
Encoding: 1070 1070 143
Width: 839
VWidth: 1365
Flags: HW
LayerCount: 2
Fore
SplineSet
0 0 m 1
 0 800 l 1
 100 800 l 1
 100 500 l 1
 240 500 l 1
 240 560 l 2
 240 626 263 683 310 730 c 128
 357 777 414 800 480 800 c 256
 546 800 603 777 650 730 c 128
 697 683 720 626 720 560 c 2
 720 240 l 2
 720 174 697 117 650 70 c 128
 603 23 546 0 480 0 c 256
 414 0 357 23 310 70 c 128
 263 117 240 174 240 240 c 2
 240 400 l 1
 100 400 l 1
 100 0 l 1
 0 0 l 1
340 240 m 2
 340 163 403 100 480 100 c 256
 557 100 620 163 620 240 c 2
 620 560 l 2
 620 637 557 700 480 700 c 256
 403 700 340 637 340 560 c 2
 340 240 l 2
EndSplineSet
EndChar

StartChar: "+AN8A"
Encoding: 1071 1071 144
Width: 599
VWidth: 1365
Flags: HW
LayerCount: 2
Fore
SplineSet
0 0 m 1
 143 320 l 1
 117 331 93 348 71 371 c 0
 24 418 0 474 0 540 c 2
 0 560 l 2
 0 626 23 683 70 730 c 128
 117 777 174 800 240 800 c 2
 480 800 l 1
 480 0 l 1
 380 0 l 1
 380 300 l 1
 243 300 l 1
 109 0 l 1
 0 0 l 1
100 540 m 2
 100 463 163 400 240 400 c 2
 380 400 l 1
 380 700 l 1
 240 700 l 2
 163 700 100 637 100 560 c 2
 100 540 l 2
EndSplineSet
EndChar

StartChar: "+AOAA"
Encoding: 1072 1072 145
Width: 451
VWidth: 1365
Flags: HW
LayerCount: 2
Fore
SplineSet
0 165 m 0
 0 255 74 329 165 329 c 2
 249 329 l 1
 249 369 l 2
 249 415 209 453 164 453 c 128
 118 453 80 415 80 369 c 1
 0 369 l 1
 0 415 16 454 48 486 c 128
 80 518 119 533 165 533 c 0
 255 533 329 459 329 369 c 2
 329 135 l 2
 329 109 337 99 347 89 c 1
 347 0 l 1
 312 11 294 26 279 46 c 1
 247 15 208 0 163 0 c 256
 73 0 0 75 0 165 c 0
80 164 m 128
 80 117 117 80 164 80 c 128
 211 80 249 117 249 165 c 2
 249 249 l 1
 159 249 l 2
 116 249 80 208 80 164 c 128
EndSplineSet
EndChar

StartChar: "+AOEA"
Encoding: 1073 1073 146
Width: 432
VWidth: 1365
Flags: HW
LayerCount: 2
Fore
SplineSet
0 165 m 2
 0 595 l 2
 0 686 74 760 165 760 c 2
 171 760 l 2
 194 760 212 766 222 776 c 128
 232 786 239 794 242 800 c 1
 329 800 l 1
 322 773 304 746 278 720 c 128
 252 694 216 680 171 680 c 2
 165 680 l 2
 118 680 80 643 80 595 c 2
 80 516 l 1
 106 527 138 533 176 533 c 128
 214 533 249 517 281 485 c 128
 313 453 329 414 329 369 c 2
 329 165 l 2
 329 74 255 0 165 0 c 0
 74 0 0 74 0 165 c 2
80 165 m 2
 80 118 117 80 164 80 c 128
 211 80 249 117 249 165 c 2
 249 369 l 2
 249 415 209 453 164 453 c 128
 118 453 80 415 80 369 c 2
 80 165 l 2
EndSplineSet
EndChar

StartChar: "+AOIA"
Encoding: 1074 1074 147
Width: 432
VWidth: 1365
Flags: HW
LayerCount: 2
Fore
SplineSet
0 165 m 2
 0 635 l 2
 0 726 74 800 165 800 c 0
 255 800 329 726 329 635 c 0
 329 590 319 557 300 538 c 128
 281 519 268 507 261 502 c 1
 268 497 281 485 300 466 c 128
 319 447 329 414 329 369 c 2
 329 165 l 2
 329 74 255 0 165 0 c 0
 74 0 0 74 0 165 c 2
80 165 m 2
 80 118 117 80 165 80 c 0
 212 80 249 118 249 165 c 2
 249 369 l 2
 249 415 211 455 165 455 c 0
 117 455 80 417 80 369 c 2
 80 165 l 2
80 510 m 1
 196 557 l 1
 223 569 249 594 249 636 c 128
 249 682 211 720 165 720 c 0
 116 720 80 684 80 635 c 2
 80 510 l 1
EndSplineSet
EndChar

StartChar: "+AOMA"
Encoding: 1075 1075 148
Width: 432
VWidth: 1365
Flags: HW
HStem: 0 80<108.148 234.097> 453 80<126.319 202.6>
VStem: 0 80<108.124 221.182> 34 80<403 438.045> 215 80<362.224 441.14> 249 80<94.0195 165>
LayerCount: 2
Fore
SplineSet
0 165 m 0xe4
 0 210 12 244 34 266 c 0
 56 288 75 304 92 312 c 2
 187 358 l 1
 201 366 215 380 215 404 c 0
 215 431 191 453 164 453 c 0
 136 453 114 431 114 403 c 1
 34 403 l 1
 34 439 46 470 72 495 c 0
 98 520 129 533 165 533 c 0xd8
 235 533 295 473 295 403 c 0xd8
 295 367 286 340 268 322 c 0
 250 304 234 293 221 286 c 2
 127 240 l 2
 103 229 80 203 80 164 c 0
 80 111 118 80 176 80 c 0
 208 80 228 88 236 104 c 0
 244 120 249 141 249 165 c 1
 329 165 l 1
 329 74 255 0 165 0 c 0
 74 0 0 74 0 165 c 0xe4
EndSplineSet
EndChar

StartChar: "+AOQA"
Encoding: 1076 1076 149
Width: 432
VWidth: 1365
Flags: HW
LayerCount: 2
Fore
SplineSet
0 165 m 2
 0 369 l 2
 0 415 16 454 48 486 c 128
 80 518 115 533 153 533 c 128
 191 533 223 527 249 516 c 1
 249 635 l 2
 249 681 210 720 164 720 c 128
 141 720 121 712 105 695 c 1
 48 752 l 1
 80 784 119 800 164 800 c 0
 255 800 329 726 329 635 c 2
 329 165 l 2
 329 74 255 0 164 0 c 0
 74 0 0 74 0 165 c 2
80 165 m 2
 80 118 117 80 164 80 c 128
 211 80 249 117 249 165 c 2
 249 369 l 2
 249 415 209 453 164 453 c 128
 118 453 80 415 80 369 c 2
 80 165 l 2
EndSplineSet
EndChar

StartChar: "+AOUA"
Encoding: 1077 1077 150
Width: 432
VWidth: 1365
Flags: HW
LayerCount: 2
Fore
SplineSet
0 165 m 2
 0 369 l 2
 0 460 73 533 164 533 c 0
 255 533 329 459 329 369 c 2
 329 227 l 1
 80 227 l 1
 80 165 l 2
 80 118 117 80 164 80 c 128
 211 80 249 117 249 165 c 1
 329 165 l 1
 329 74 255 0 164 0 c 0
 74 0 0 74 0 165 c 2
80 307 m 1
 249 307 l 1
 249 369 l 2
 249 415 209 453 164 453 c 128
 118 453 80 415 80 369 c 2
 80 307 l 1
EndSplineSet
EndChar

StartChar: "+AOYA"
Encoding: 1078 1078 151
Width: 592
VWidth: 1365
Flags: HW
LayerCount: 2
Fore
SplineSet
0 0 m 1
 128 307 l 1
 0 533 l 1
 92 533 l 1
 197 347 l 1
 205 347 l 1
 205 533 l 1
 285 533 l 1
 285 347 l 1
 291 347 l 1
 397 533 l 1
 489 533 l 1
 361 307 l 1
 489 0 l 1
 402 0 l 1
 291 267 l 1
 285 267 l 1
 285 0 l 1
 205 0 l 1
 205 267 l 1
 198 267 l 1
 87 0 l 1
 0 0 l 1
EndSplineSet
EndChar

StartChar: "+AOcA"
Encoding: 1079 1079 152
Width: 432
VWidth: 1365
Flags: HW
LayerCount: 2
Fore
SplineSet
0 165 m 1
 79 165 l 1
 79 118 118 80 165 80 c 0
 212 80 248 117 248 165 c 256
 248 211 211 249 165 249 c 2
 125 249 l 1
 125 329 l 1
 165 329 l 2
 198 329 227 358 227 391 c 0
 227 427 200 453 165 453 c 256
 130 453 102 426 102 391 c 1
 23 391 l 1
 23 430 37 464 64 492 c 128
 91 520 125 533 165 533 c 256
 244 533 307 470 307 391 c 0
 307 353 294 320 268 293 c 1
 273 290 277 286 281 281 c 0
 312 249 328 210 329 165 c 0
 329 74 255 0 165 0 c 0
 74 0 0 74 0 165 c 1
EndSplineSet
EndChar

StartChar: "+AOgA"
Encoding: 1080 1080 153
Width: 451
VWidth: 1365
Flags: HW
LayerCount: 2
Fore
SplineSet
0 165 m 2
 0 533 l 1
 80 533 l 1
 80 165 l 2
 80 118 117 80 164 80 c 128
 211 80 249 117 249 165 c 2
 249 533 l 1
 329 533 l 1
 329 151 l 2
 329 130 335 112 347 97 c 1
 347 0 l 1
 323 9 300 29 283 50 c 1
 250 17 212 0 164 0 c 0
 74 0 0 74 0 165 c 2
EndSplineSet
EndChar

StartChar: "+AOkA"
Encoding: 1081 1081 154
Width: 451
VWidth: 1365
Flags: HW
LayerCount: 2
Fore
SplineSet
0 165 m 2
 0 533 l 1
 80 533 l 1
 80 165 l 2
 80 118 117 80 164 80 c 128
 211 80 249 117 249 165 c 2
 249 533 l 1
 329 533 l 1
 329 151 l 2
 329 130 335 112 347 97 c 1
 347 0 l 1
 323 9 300 29 283 50 c 1
 250 17 212 0 164 0 c 0
 74 0 0 74 0 165 c 2
120 613 m 1
 120 693 l 1
 209 693 l 1
 209 613 l 1
 120 613 l 1
EndSplineSet
EndChar

StartChar: "+AOoA"
Encoding: 1082 1082 155
Width: 432
VWidth: 1365
Flags: HW
HStem: 0 21G<0 80 239.336 329> 513 20G<0 80 219.638 329>
VStem: 0 80<0 160 304 533>
LayerCount: 2
Fore
SplineSet
0 0 m 1
 0 533 l 1
 80 533 l 1
 80 304 l 1
 233 533 l 1
 329 533 l 1
 222 373 l 1
 329 0 l 1
 245 0 l 1
 164 286 l 1
 80 160 l 1
 80 0 l 1
 0 0 l 1
EndSplineSet
EndChar

StartChar: "+AOsA"
Encoding: 1083 1083 156
Width: 432
VWidth: 1365
Flags: HW
LayerCount: 2
Fore
SplineSet
0 0 m 1
 0 80 l 1
 9 80 l 2
 39 80 65 106 65 136 c 2
 65 397 l 2
 65 473 125 533 201 533 c 2
 329 533 l 1
 329 0 l 1
 249 0 l 1
 249 453 l 1
 201 453 l 2
 171 453 145 428 145 397 c 2
 145 136 l 2
 145 61 83 0 9 0 c 2
 0 0 l 1
EndSplineSet
EndChar

StartChar: "+AOwA"
Encoding: 1084 1084 157
Width: 592
VWidth: 1365
Flags: HW
LayerCount: 2
Fore
SplineSet
0 0 m 1
 0 533 l 1
 92 533 l 1
 245 267 l 1
 397 533 l 1
 489 533 l 1
 489 0 l 1
 409 0 l 1
 409 379 l 1
 245 105 l 1
 80 379 l 1
 80 0 l 1
 0 0 l 1
EndSplineSet
EndChar

StartChar: "+AO0A"
Encoding: 1085 1085 158
Width: 431
VWidth: 1365
Flags: HW
LayerCount: 2
Fore
SplineSet
0 0 m 1
 0 533 l 1
 80 533 l 1
 80 347 l 1
 248 347 l 1
 248 533 l 1
 328 533 l 1
 328 0 l 1
 248 0 l 1
 248 267 l 1
 80 267 l 1
 80 0 l 1
 0 0 l 1
EndSplineSet
EndChar

StartChar: "+AO4A"
Encoding: 1086 1086 159
Width: 432
VWidth: 1365
Flags: HW
LayerCount: 2
Fore
SplineSet
0 165 m 2
 0 369 l 2
 0 460 73 533 164 533 c 0
 255 533 329 459 329 369 c 2
 329 165 l 2
 329 74 255 0 164 0 c 0
 74 0 0 74 0 165 c 2
80 165 m 2
 80 118 117 80 164 80 c 128
 211 80 249 117 249 165 c 2
 249 369 l 2
 249 415 209 453 164 453 c 128
 118 453 80 415 80 369 c 2
 80 165 l 2
EndSplineSet
EndChar

StartChar: "+AO8A"
Encoding: 1087 1087 160
Width: 451
VWidth: 1365
Flags: HW
HStem: 0 21G<19 99 267 347> 453 80<126.966 239.034>
VStem: 19 80<0 425.193> 267 80<0 424.672>
LayerCount: 2
Fore
SplineSet
0 436 m 1
 0 533 l 1
 26 524 48 504 65 483 c 1
 98 516 136 533 183 533 c 0
 273 533 347 459 347 369 c 2
 347 0 l 1
 267 0 l 1
 267 369 l 2
 267 414 228 453 183 453 c 0
 138 453 99 414 99 369 c 2
 99 0 l 1
 19 0 l 1
 19 383 l 2
 19 404 13 421 0 436 c 1
EndSplineSet
EndChar

StartChar: "+APAA"
Encoding: 1088 1088 161
Width: 432
VWidth: 1365
Flags: HW
LayerCount: 2
Fore
SplineSet
0 -267 m 1
 0 533 l 1
 165 533 l 2
 255 533 329 459 329 369 c 2
 329 165 l 2
 329 74 255 0 165 0 c 2
 80 0 l 1
 80 -267 l 1
 0 -267 l 1
80 80 m 1
 165 80 l 2
 211 80 249 120 249 165 c 2
 249 369 l 2
 249 412 213 453 169 453 c 0
 139 453 110 453 80 453 c 1
 80 80 l 1
EndSplineSet
EndChar

StartChar: "+APEA"
Encoding: 1089 1089 162
Width: 432
VWidth: 1365
Flags: HW
LayerCount: 2
Fore
SplineSet
0 165 m 2
 0 369 l 2
 0 460 73 533 164 533 c 0
 255 533 329 459 329 369 c 1
 249 369 l 1
 249 415 209 453 164 453 c 128
 118 453 80 415 80 369 c 2
 80 165 l 2
 80 118 117 80 164 80 c 128
 211 80 249 117 249 165 c 1
 329 165 l 1
 329 74 255 0 164 0 c 0
 74 0 0 74 0 165 c 2
EndSplineSet
EndChar

StartChar: "+APIA"
Encoding: 1090 1090 163
Width: 592
VWidth: 1365
Flags: HW
HStem: 0 21G<25 105 217 297 409 489> 453 80<119.396 202.162 311.064 394.204>
VStem: 0 66<495 513.887> 25 80<0 436.498> 217 80<0 435.983> 409 80<0 435.983>
LayerCount: 2
Fore
SplineSet
0 447 m 1
 0 533 l 1
 25 528 46 516 65 497 c 0
 66 496 66 496 66 495 c 1
 92 520 124 533 161 533 c 0
 199 533 231 520 257 494 c 1
 283 520 315 533 353 533 c 256
 429 533 489 473 489 397 c 2xec
 489 0 l 1
 409 0 l 1
 409 397 l 2
 409 426 382 453 353 453 c 0
 323 453 297 428 297 397 c 2
 297 0 l 1
 217 0 l 1
 217 397 l 2
 217 426 190 453 161 453 c 0
 131 453 105 428 105 397 c 2
 105 0 l 1
 25 0 l 1
 25 401 l 2xdc
 25 419 14 437 0 447 c 1
EndSplineSet
EndChar

StartChar: "+APMA"
Encoding: 1091 1091 164
Width: 432
VWidth: 1365
Flags: HW
LayerCount: 2
Fore
SplineSet
0 533 m 1
 82 533 l 1
 165 167 l 1
 247 533 l 1
 329 533 l 1
 175 -152 l 1
 164 -216 110 -267 40 -267 c 1
 40 -187 l 1
 67 -187 88 -166 95 -143 c 1
 123 -1 l 1
 0 533 l 1
EndSplineSet
EndChar

StartChar: "+APQA"
Encoding: 1092 1092 165
Width: 592
VWidth: 1365
Flags: HW
LayerCount: 2
Fore
SplineSet
0 165 m 2
 0 289 l 2
 0 380 73 453 164 453 c 0
 178 453 192 452 205 449 c 1
 205 533 l 1
 285 533 l 1
 285 449 l 1
 296 451 307 453 318 453 c 2
 325 453 l 2
 415 453 489 379 489 289 c 2
 489 165 l 2
 489 74 415 0 325 0 c 0
 311 0 298 2 285 5 c 1
 285 -267 l 1
 205 -267 l 1
 205 5 l 1
 192 2 179 0 164 0 c 0
 74 0 0 74 0 165 c 2
80 165 m 2
 80 118 117 80 165 80 c 0
 180 80 193 83 205 90 c 1
 205 363 l 1
 193 370 180 373 165 373 c 0
 120 373 80 335 80 289 c 2
 80 165 l 2
285 89 m 1
 297 83 310 80 325 80 c 0
 372 80 409 118 409 165 c 2
 409 289 l 2
 409 334 370 373 325 373 c 0
 310 373 297 370 285 364 c 1
 285 89 l 1
EndSplineSet
EndChar

StartChar: "+APUA"
Encoding: 1093 1093 166
Width: 432
VWidth: 1365
Flags: HW
LayerCount: 2
Fore
SplineSet
0 0 m 1
 116 267 l 1
 0 533 l 1
 88 533 l 1
 165 364 l 1
 241 533 l 1
 329 533 l 1
 208 267 l 1
 329 0 l 1
 241 0 l 1
 165 169 l 1
 88 0 l 1
 0 0 l 1
EndSplineSet
EndChar

StartChar: "+APYA"
Encoding: 1094 1094 167
Width: 512
VWidth: 1365
Flags: HW
LayerCount: 2
Fore
SplineSet
0 165 m 2
 0 533 l 1
 80 533 l 1
 80 165 l 2
 80 117 116 80 164 80 c 128
 210 80 249 119 249 165 c 2
 249 533 l 1
 329 533 l 1
 329 165 l 2
 329 142 325 120 316 99 c 1
 371 61 409 -6 409 -80 c 1
 328 -79 l 1
 328 -42 315 -10 289 17 c 0
 282 24 274 30 267 35 c 1
 238 12 203 0 164 0 c 0
 74 0 0 74 0 165 c 2
EndSplineSet
EndChar

StartChar: "+APcA"
Encoding: 1095 1095 168
Width: 432
VWidth: 1365
Flags: HW
LayerCount: 2
Fore
SplineSet
0 351 m 2
 0 533 l 1
 80 533 l 1
 80 351 l 2
 80 308 116 267 160 267 c 0
 190 267 219 267 249 267 c 1
 249 533 l 1
 329 533 l 1
 329 0 l 1
 249 0 l 1
 249 187 l 1
 164 187 l 2
 74 187 0 261 0 351 c 2
EndSplineSet
EndChar

StartChar: "+APgA"
Encoding: 1096 1096 169
Width: 592
VWidth: 1365
Flags: HW
LayerCount: 2
Fore
SplineSet
0 136 m 2
 0 533 l 1
 80 533 l 1
 80 136 l 2
 80 105 105 80 136 80 c 0
 167 80 192 105 192 136 c 2
 192 533 l 1
 272 533 l 1
 272 136 l 2
 272 105 297 80 328 80 c 0
 359 80 384 105 384 136 c 2
 384 533 l 1
 464 533 l 1
 464 133 l 2
 464 115 475 96 489 86 c 1
 489 0 l 1
 463 5 442 19 423 38 c 1
 397 13 365 0 328 0 c 0
 290 0 258 13 232 39 c 1
 206 13 174 0 136 0 c 256
 61 0 0 61 0 136 c 2
EndSplineSet
EndChar

StartChar: "+APkA"
Encoding: 1097 1097 170
Width: 672
VWidth: 1365
Flags: HW
LayerCount: 2
Fore
SplineSet
0 136 m 2
 0 533 l 1
 80 533 l 1
 80 136 l 2
 80 105 105 80 136 80 c 0
 167 80 192 105 192 136 c 2
 192 533 l 1
 272 533 l 1
 272 136 l 2
 272 105 297 80 328 80 c 256
 359 80 384 105 384 136 c 2
 384 533 l 1
 464 533 l 1
 464 136 l 2
 464 126 463 117 461 108 c 1
 477 99 492 87 506 73 c 0
 548 31 569 -20 569 -80 c 1
 488 -80 l 1
 488 -29 460 13 423 38 c 1
 397 13 365 0 328 0 c 0
 290 0 258 13 232 39 c 1
 206 13 174 0 136 0 c 256
 61 0 0 61 0 136 c 2
EndSplineSet
EndChar

StartChar: "+APoA"
Encoding: 1098 1098 171
Width: 512
VWidth: 1365
Flags: HW
LayerCount: 2
Fore
SplineSet
0 453 m 1
 0 533 l 1
 160 533 l 1
 160 347 l 1
 245 347 l 2
 335 347 409 273 409 182 c 2
 409 165 l 2
 409 74 335 0 245 0 c 2
 80 0 l 1
 80 453 l 1
 0 453 l 1
160 80 m 1
 245 80 l 2
 291 80 329 120 329 165 c 2
 329 182 l 2
 329 227 291 267 245 267 c 2
 160 267 l 1
 160 80 l 1
EndSplineSet
EndChar

StartChar: "+APsA"
Encoding: 1099 1099 172
Width: 592
VWidth: 1365
Flags: HW
LayerCount: 2
Fore
SplineSet
0 0 m 1
 0 533 l 1
 80 533 l 1
 80 347 l 1
 165 347 l 2
 255 347 329 273 329 182 c 2
 329 165 l 2
 329 74 255 0 165 0 c 2
 0 0 l 1
80 80 m 1
 165 80 l 2
 211 80 249 120 249 165 c 2
 249 182 l 2
 249 227 211 267 165 267 c 2
 80 267 l 1
 80 80 l 1
409 0 m 1
 409 533 l 1
 489 533 l 1
 489 0 l 1
 409 0 l 1
EndSplineSet
EndChar

StartChar: "+APwA"
Encoding: 1100 1100 173
Width: 432
VWidth: 1365
Flags: HW
LayerCount: 2
Fore
SplineSet
0 0 m 1
 0 533 l 1
 80 533 l 1
 80 347 l 1
 165 347 l 2
 255 347 329 273 329 182 c 2
 329 165 l 2
 329 74 255 0 165 0 c 2
 0 0 l 1
80 80 m 1
 165 80 l 2
 211 80 249 120 249 165 c 2
 249 182 l 2
 249 227 211 267 165 267 c 2
 80 267 l 1
 80 80 l 1
EndSplineSet
EndChar

StartChar: "+AP0A"
Encoding: 1101 1101 174
Width: 432
VWidth: 1365
Flags: HW
LayerCount: 2
Fore
SplineSet
0 165 m 1
 80 165 l 1
 80 118 117 80 164 80 c 128
 211 80 249 117 249 165 c 2
 249 227 l 1
 125 227 l 1
 125 307 l 1
 249 307 l 1
 249 369 l 2
 249 415 209 453 164 453 c 128
 118 453 80 415 80 369 c 1
 0 369 l 1
 0 415 16 454 48 486 c 128
 80 518 119 533 165 533 c 0
 255 533 329 459 329 369 c 2
 329 165 l 2
 329 74 255 0 165 0 c 0
 74 0 0 74 0 165 c 1
EndSplineSet
EndChar

StartChar: "+AP4A"
Encoding: 1102 1102 175
Width: 592
VWidth: 1365
Flags: HW
LayerCount: 2
Fore
SplineSet
0 0 m 1
 0 533 l 1
 80 533 l 1
 80 347 l 1
 160 347 l 1
 160 369 l 2
 160 460 233 533 324 533 c 0
 415 533 489 459 489 369 c 2
 489 165 l 2
 489 74 415 0 324 0 c 0
 234 0 160 74 160 165 c 2
 160 267 l 1
 80 267 l 1
 80 0 l 1
 0 0 l 1
240 165 m 2
 240 118 277 80 324 80 c 128
 371 80 409 117 409 165 c 2
 409 369 l 2
 409 415 369 453 324 453 c 128
 278 453 240 415 240 369 c 2
 240 165 l 2
EndSplineSet
EndChar

StartChar: "+AP8A"
Encoding: 1103 1103 176
Width: 432
VWidth: 1365
Flags: HW
LayerCount: 2
Fore
SplineSet
0 0 m 1
 95 201 l 1
 78 209 63 220 48 235 c 0
 16 267 0 306 0 351 c 2
 0 369 l 2
 0 460 73 533 164 533 c 2
 329 533 l 1
 329 0 l 1
 249 0 l 1
 249 187 l 1
 176 187 l 1
 89 0 l 1
 0 0 l 1
80 351 m 2
 80 308 116 267 160 267 c 0
 190 267 219 267 249 267 c 1
 249 453 l 1
 164 453 l 2
 117 453 80 415 80 369 c 2
 80 351 l 2
EndSplineSet
EndChar

StartChar: "+ALgA"
Encoding: 1105 1105 177
Width: 432
VWidth: 1365
Flags: HW
LayerCount: 2
Fore
SplineSet
0 165 m 2
 0 369 l 2
 0 460 73 533 164 533 c 0
 255 533 329 459 329 369 c 2
 329 227 l 1
 80 227 l 1
 80 165 l 2
 80 118 117 80 164 80 c 128
 211 80 249 117 249 165 c 1
 329 165 l 1
 329 74 255 0 164 0 c 0
 74 0 0 74 0 165 c 2
80 307 m 1
 249 307 l 1
 249 369 l 2
 249 415 209 453 164 453 c 128
 118 453 80 415 80 369 c 2
 80 307 l 1
EndSplineSet
EndChar
